<svg xmlns="http://www.w3.org/2000/svg" xmlns:xlink="http://www.w3.org/1999/xlink" x="0px" y="0px" viewBox="0 0 806.5 573">
    <defs>
    <style>
        /* banner image css start */
        /* Banner image animation - start */
        .eye{animation:winking 6s linear infinite;}
        .left-center{transform-origin:93% 59% 0; animation:leaf-c 25s ease infinite;}
        .left-left{transform-origin:93% 59% 0; animation:leaf-l 25s ease infinite;}
        .left-right{transform-origin:93% 59% 0; animation:leaf-r 25s ease infinite;}
        .bulb{-webkit-animation: color-change-3x 6s linear alternate both; animation: color-change-3x 6s linear alternate both;}
        [class*="line-"] polygon{opacity:0; transition: all 200ms ease 0s;}
        .line-1.go polygon,.line-2.go polygon,.line-3.go polygon,.line-4.go polygon,.line-5.go polygon,.line-6.go polygon,.line-7.go polygon,.line-8.go polygon{opacity:1}
        .line-1.go polygon:nth-child(1){transition-delay:1s;}
        .line-1.go polygon:nth-child(2){transition-delay:1.3s;}
        .line-1.go polygon:nth-child(3){transition-delay:1.6s;}
        .line-1.go polygon:nth-child(4){transition-delay:1.9s;}
        .line-1.go polygon:nth-child(5){transition-delay:2.2s;}
        .line-2.go polygon:nth-child(1){transition-delay:2.5s;}
        .line-2.go polygon:nth-child(2){transition-delay:2.8s;}
        .line-2.go polygon:nth-child(3){transition-delay:3.1s;}
        .line-2.go polygon:nth-child(4){transition-delay:3.4s;}
        .line-2.go polygon:nth-child(5){transition-delay:3.7s;}
        .line-3.go polygon:nth-child(1){transition-delay:4s;}
        .line-3.go polygon:nth-child(2){transition-delay:4.3s;}
        .line-3.go polygon:nth-child(3){transition-delay:4.6s;}
        .line-3.go polygon:nth-child(4){transition-delay:4.9s;}
        .line-3.go polygon:nth-child(5){transition-delay:5.2s;}
        .line-3.go polygon:nth-child(6){transition-delay:5.5s;}
        .line-4.go polygon:nth-child(1){transition-delay:5.8s;}
        .line-4.go polygon:nth-child(2){transition-delay:6.1s;}
        .line-4.go polygon:nth-child(3){transition-delay:6.4s;}
        .line-4.go polygon:nth-child(4){transition-delay:6.7s;}
        .line-4.go polygon:nth-child(5){transition-delay:7s;}
        .line-5.go polygon:nth-child(1){transition-delay:7.3s;}
        .line-5.go polygon:nth-child(2){transition-delay:7.6s;}
        .line-5.go polygon:nth-child(3){transition-delay:7.9s;}
        .line-5.go polygon:nth-child(4){transition-delay:8.2s;}
        .line-5.go polygon:nth-child(5){transition-delay:8.5s;}
        .line-5.go polygon:nth-child(6){transition-delay:8.8s;}
        .line-5.go polygon:nth-child(7){transition-delay:9.1s;}
        .line-6.go polygon:nth-child(1){transition-delay:9.4s;}
        .line-6.go polygon:nth-child(2){transition-delay:9.7s;}
        .line-6.go polygon:nth-child(3){transition-delay:10s;}
        .line-6.go polygon:nth-child(4){transition-delay:10.3s;}
        .line-6.go polygon:nth-child(5){transition-delay:10.6s;}
        .line-7.go polygon:nth-child(1){transition-delay:10.9s;}
        .line-7.go polygon:nth-child(2){transition-delay:11.2s;}
        .line-7.go polygon:nth-child(3){transition-delay:11.5s;}
        .line-7.go polygon:nth-child(4){transition-delay:11.8s;}
        .line-7.go polygon:nth-child(5){transition-delay:12.1s;}
        .line-8.go polygon:nth-child(1){transition-delay:12.4s;}
        .line-8.go polygon:nth-child(2){transition-delay:12.7s;}
        .line-8.go polygon:nth-child(3){transition-delay:13s;}
        .line-8.go polygon:nth-child(4){transition-delay:13.3s;}
        .line-8.go polygon:nth-child(5){transition-delay:13.6s;}

        @keyframes color-change-3x{0%{fill:#ffffff;}85%{fill:#FDEECF;}90%{fill:#F9CE78;}95%{fill:#F5AE20;}100%{fill:#EBCD91;}}
        @keyframes winking{0%{opacity:0;}1.5%{opacity:1;}2.5%{opacity:0;}3.5%{opacity:1;}100%{opacity:1;}}
        @keyframes leaf-r{0%{transform:rotate(0deg);}24%{transform:rotate(0deg);}34%{transform:rotate(9deg);}44%{transform:rotate(0deg);}100%{transform:rotate(0deg);}}
        @keyframes leaf-c{0%{transform:rotate(0deg);}22%{transform:rotate(-2deg);}32%{transform:rotate(9deg);}42%{transform:rotate(0deg);}100%{transform:rotate(0deg);}}
        @keyframes leaf-l{0%{transform:rotate(0deg);}20%{transform:rotate(-2deg);}30%{transform:rotate(9deg);}40%{transform:rotate(0deg);}100%{transform:rotate(0deg);}}
        @-webkit-keyframes sonarEffect{0%{opacity:0.3;}40%{opacity:0.5;box-shadow:0 0 0 2px rgba(255,255,255,0.1),0 0 10px 10px #3851bc,0 0 0 10px rgba(255,255,255,0.5);}100%{box-shadow:0 0 0 2px rgba(255,255,255,0.1),0 0 10px 10px #3851bc,0 0 0 10px rgba(255,255,255,0.5);-webkit-transform:scale(1.5);opacity:0;}}
        @-moz-keyframes sonarEffect{0%{opacity:0.3;}40%{opacity:0.5;box-shadow:0 0 0 2px rgba(255,255,255,0.1),0 0 10px 10px #3851bc,0 0 0 10px rgba(255,255,255,0.5);}100%{box-shadow:0 0 0 2px rgba(255,255,255,0.1),0 0 10px 10px #3851bc,0 0 0 10px rgba(255,255,255,0.5);-moz-transform:scale(1.5);opacity:0;}}
        @keyframes sonarEffect{0%{opacity:0.3;}40%{opacity:0.5;box-shadow:0 0 0 2px rgba(255,255,255,0.1),0 0 10px 10px #3851bc,0 0 0 10px rgba(255,255,255,0.5);}100%{box-shadow:0 0 0 2px rgba(255,255,255,0.1),0 0 10px 10px #3851bc,0 0 0 10px rgba(255,255,255,0.5);transform:scale(1.5);opacity:0;}}

        .st0{fill:none;stroke:#716F82;stroke-width:7;stroke-miterlimit:10;}
        .st1{fill:#072050;}
        .st2{fill:#747282;}
        .st3{fill:#2D2D3A;}
        .st4{fill:#ffffff;}
        .st5{fill:#A29FB0;}
        .st6{fill:#6E89C4;}
        .st7{fill:#EA5444;}
        .st8{fill:#FFC543;}
        .st9{fill:#A2CC3B;}
        .st10{fill:#313D6E;}
        .st23232323{clip-path:url(#SVGID_2_);}
        .st11{fill:#678C6E;}
        .st12{opacity:0.55;fill:#C5CBED;}
        .st13{fill:#7C4B39;}
        .st14{fill:#FCBBA4;}
        .st15{fill:#FFC7B0;}
        .st16{fill:#081344;}
        .st17{opacity:0.2;fill:#081344;}
        .st18{fill:#716F82;}
        .st19{fill:#B1AEC1;}
        .st20{fill:#585668;}
        .st21{fill:#DDDDDD;}
        .st22{fill:#767684;}
        .st23{fill:#1F3468;}
        .st24{fill:#ABA9C4;}
        .st25{fill:#4A4960;}
        .st26{fill:#E79271;}
        .st27{fill:#A5483C;}
        .st28{fill:#84352F;}
        .st29{fill:#7F3954;}
        .st30{fill:#6E3856;}
        .st31{fill:#DF7D54;}
        .st32{fill:none;stroke:#081344;stroke-width:1.4933;stroke-linecap:round;stroke-miterlimit:10;}
        .st33{fill:#1C1C2D;}
        .st34{fill:#A0523A;}
        .st35{fill:#25253A;}
        .st36{fill:#9F293B;}
        .st37{fill:#F14747;}
        .st38{opacity:0.32;fill:#25253A;}
        .st39{fill:#ECEEF0;}
        .st40{fill:#CDD6F9;}
        .st41{fill:#FC4F42;}
        .st42{opacity:0.79;fill:#CE2D29;}
        .st43{fill:#6075B0;}
        .st44{fill:#794061;}
        .st45{fill:#072859;}
        .st46{fill:#F3885E;}
        .st47{fill:#FFBE62;}
        .st48{fill:#FBAF3D;}
        .st49{fill:#FFD72E;}
        .st50{fill:#F38154;}
        .st51{fill:#709B2C;}
        .st52{fill:#4C842F;}
        .st53{fill:none;stroke:#081344;stroke-width:4.5943;stroke-miterlimit:10;}
        .st54{fill:#517F38;}
        .st55{fill:#3B6837;}
        .st56{fill:#65B15B;}
        .st57{fill:#62324A;}
        /* Banner image animation - end */
    </style>
</defs>
    <line class="st0" x1="15.2" y1="546.3" x2="795.1" y2="546.3"></line>
    <g><rect x="128.1" y="143.3" transform="matrix(-1 -1.224647e-16 1.224647e-16 -1 322.3262 428.729)" class="st1" width="66.1" height="142.2"></rect>
    <g><path class="st2" d="M54.7,235.6h212V98.7c0-4.8-3.9-8.7-8.7-8.7H63.3c-4.8,0-8.7,3.9-8.7,8.7V235.6z"></path><path class="st2" d="M75,256.8h175.4c10.1,0,18.3-8.2,18.3-18.3v-7h-212v7C56.7,248.6,64.9,256.8,75,256.8z"></path><path class="st3" d="M274.1,98.7v136.9l-52-0.8l-54.5-0.9l-17.2-0.3l-55-0.9l-33.3-0.5V98.7c0-4.8,3.9-8.7,8.7-8.7h194.7C270.2,90,274.1,93.9,274.1,98.7z"></path><path class="st4" d="M70,102.5v120.8c0,0.4,0.4,0.8,0.8,0.8h194.6c0.4,0,0.8-0.4,0.8-0.8V102.5c0-0.4-0.4-0.8-0.8-0.8H70.8C70.4,101.7,70,102.1,70,102.5z"></path><path class="st5" d="M80.4,256.8h175.4c10.1,0,18.3-8.2,18.3-18.3v-7h-212v7C62.1,248.6,70.3,256.8,80.4,256.8z"></path></g><path class="st5" d="M126.4,286h88.6c2.7,0,4.9-2.2,4.9-4.9l0,0c0-2.7-2.2-4.9-4.9-4.9h-88.6c-2.7,0-4.9,2.2-4.9,4.9l0,0C121.5,283.8,123.7,286,126.4,286z"></path>
    <g><path class="st6" d="M256.9,123H82.6c-1.5,0-2.6-1.2-2.6-2.6v-10.2c0-1.5,1.2-2.6,2.6-2.6h174.3c1.5,0,2.6,1.2,2.6,2.6v10.2C259.5,121.8,258.3,123,256.9,123z"></path>
        <g>
        <g><path class="st7" d="M93.6,115c0,1.9-1.5,3.4-3.3,3.4S87,116.9,87,115c0-1.9,1.5-3.4,3.3-3.4S93.6,113.2,93.6,115z"></path></g></g>
    <g>
        <g><ellipse class="st8" cx="102.3" cy="115" rx="3.3" ry="3.4"></ellipse></g></g>
    <g>
        <g><ellipse class="st9" cx="114.3" cy="115" rx="3.3" ry="3.4"></ellipse></g></g><!-- -->
    <g><defs><rect id="SVGID_1_" x="74.5" y="124.8" width="189.1" height="95.3"></rect></defs><clipPath id="SVGID_2_"><use xlink:href="#SVGID_1_" style="overflow:visible;"></use></clipPath><g class="st23232323"><g class="widow-1"><path class="st11" d="M139.3,150H81.1c-0.9,0-1.6-0.7-1.6-1.6v-17.8c0-0.9,0.7-1.6,1.6-1.6h58.2c0.9,0,1.6,0.7,1.6,1.6v17.8 C140.9,149.3,140.2,150,139.3,150z"></path><path class="st12" d="M210.8,176.5h-58.2c-0.9,0-1.6-0.7-1.6-1.6v-17.8c0-0.9,0.7-1.6,1.6-1.6h58.2c0.9,0,1.6,0.7,1.6,1.6v17.8 C212.4,175.8,211.7,176.5,210.8,176.5z"></path><path class="st12" d="M257.9,150h-35.2c-0.9,0-1.6-0.7-1.6-1.6v-17.8c0-0.9,0.7-1.6,1.6-1.6h35.2c0.9,0,1.6,0.7,1.6,1.6v17.8 C259.5,149.3,258.8,150,257.9,150z"></path><path class="st7" d="M257.9,176.9h-35.2c-0.9,0-1.6-0.7-1.6-1.6v-17.8c0-0.9,0.7-1.6,1.6-1.6h35.2c0.9,0,1.6,0.7,1.6,1.6v17.8 C259.5,176.2,258.8,176.9,257.9,176.9z"></path>
        <g><rect x="151.5" y="145.9" class="st1" width="61.4" height="1.5"></rect><rect x="151.5" y="140.5" class="st1" width="61.4" height="1.5"></rect><rect x="151.5" y="135.2" class="st1" width="61.4" height="1.5"></rect><rect x="151.5" y="129.8" class="st1" width="61.4" height="1.5"></rect></g><path class="st7" d="M139.3,202.5H81.1c-0.9,0-1.6-0.7-1.6-1.6v-17.8c0-0.9,0.7-1.6,1.6-1.6h58.2c0.9,0,1.6,0.7,1.6,1.6v17.8 C140.9,201.8,140.2,202.5,139.3,202.5z"></path>
    <g><rect x="151.5" y="198.3" class="st1" width="61.4" height="1.5"></rect><rect x="151.5" y="193" class="st1" width="61.4" height="1.5"></rect><rect x="151.5" y="187.7" class="st1" width="61.4" height="1.5"></rect><rect x="151.5" y="182.3" class="st1" width="61.4" height="1.5"></rect></g>
    <g><rect x="79.3" y="171.5" class="st1" width="61.4" height="1.5"></rect><rect x="79.3" y="166.1" class="st1" width="61.4" height="1.5"></rect><rect x="79.3" y="160.8" class="st1" width="61.4" height="1.5"></rect><rect x="79.3" y="155.5" class="st1" width="61.4" height="1.5"></rect></g><path class="st7" d="M211.1,229.6H153c-0.9,0-1.6-0.7-1.6-1.6v-17.8c0-0.9,0.7-1.6,1.6-1.6h58.2c0.9,0,1.6,0.7,1.6,1.6V228 C212.8,228.9,212,229.6,211.1,229.6z"></path><path class="st11" d="M258.3,230H223c-0.9,0-1.6-0.7-1.6-1.6v-17.8c0-0.9,0.7-1.6,1.6-1.6h35.2c0.9,0,1.6,0.7,1.6,1.6v17.8 C259.9,229.3,259.1,230,258.3,230z"></path><path class="st11" d="M139.6,255.6H81.4c-0.9,0-1.6-0.7-1.6-1.6v-17.8c0-0.9,0.7-1.6,1.6-1.6h58.2c0.9,0,1.6,0.7,1.6,1.6V254 C141.3,254.9,140.5,255.6,139.6,255.6z"></path>
    <g><rect x="151.9" y="251.4" class="st1" width="61.4" height="1.5"></rect><rect x="151.9" y="246.1" class="st1" width="61.4" height="1.5"></rect><rect x="151.9" y="240.8" class="st1" width="61.4" height="1.5"></rect><rect x="151.9" y="235.4" class="st1" width="61.4" height="1.5"></rect></g>
    <g><rect x="79.7" y="224.6" class="st1" width="61.4" height="1.5"></rect><rect x="79.7" y="219.2" class="st1" width="61.4" height="1.5"></rect><rect x="79.7" y="213.9" class="st1" width="61.4" height="1.5"></rect><rect x="79.7" y="208.6" class="st1" width="61.4" height="1.5"></rect></g>
    <g><rect x="221.4" y="251.4" class="st1" width="38.4" height="1.5"></rect><rect x="221.4" y="246.1" class="st1" width="38.4" height="1.5"></rect><rect x="221.4" y="240.8" class="st1" width="38.4" height="1.5"></rect><rect x="221.4" y="235.4" class="st1" width="38.4" height="1.5"></rect></g></g><g class="widow-2"><path class="st12" d="M211.9,283.4h-58.2c-0.9,0-1.6-0.7-1.6-1.6V264c0-0.9,0.7-1.6,1.6-1.6h58.2c0.9,0,1.6,0.7,1.6,1.6v17.8 C213.5,282.7,212.8,283.4,211.9,283.4z"></path><path class="st7" d="M259,283.8h-35.2c-0.9,0-1.6-0.7-1.6-1.6v-17.8c0-0.9,0.7-1.6,1.6-1.6H259c0.9,0,1.6,0.7,1.6,1.6v17.8 C260.6,283.1,259.9,283.8,259,283.8z"></path><path class="st12" d="M140.4,309.4H82.2c-0.9,0-1.6-0.7-1.6-1.6V290c0-0.9,0.7-1.6,1.6-1.6h58.2c0.9,0,1.6,0.7,1.6,1.6v17.8 C142,308.7,141.3,309.4,140.4,309.4z"></path>
        <g><rect x="152.6" y="305.2" class="st1" width="61.4" height="1.5"></rect><rect x="152.6" y="299.9" class="st1" width="61.4" height="1.5"></rect><rect x="152.6" y="294.6" class="st1" width="61.4" height="1.5"></rect><rect x="152.6" y="289.2" class="st1" width="61.4" height="1.5"></rect></g>
    <g><rect x="80.4" y="278.4" class="st1" width="61.4" height="1.5"></rect><rect x="80.4" y="273" class="st1" width="61.4" height="1.5"></rect><rect x="80.4" y="267.7" class="st1" width="61.4" height="1.5"></rect><rect x="80.4" y="262.4" class="st1" width="61.4" height="1.5"></rect></g><path class="st7" d="M212.3,336.5h-58.2c-0.9,0-1.6-0.7-1.6-1.6v-17.8c0-0.9,0.7-1.6,1.6-1.6h58.2c0.9,0,1.6,0.7,1.6,1.6v17.8C213.9,335.8,213.2,336.5,212.3,336.5z"></path><path class="st11" d="M259.4,336.9h-35.2c-0.9,0-1.6-0.7-1.6-1.6v-17.8c0-0.9,0.7-1.6,1.6-1.6h35.2c0.9,0,1.6,0.7,1.6,1.6v17.8C261,336.2,260.3,336.9,259.4,336.9z"></path><path class="st7" d="M140.8,362.5H82.6c-0.9,0-1.6-0.7-1.6-1.6v-17.8c0-0.9,0.7-1.6,1.6-1.6h58.2c0.9,0,1.6,0.7,1.6,1.6v17.8C142.4,361.8,141.7,362.5,140.8,362.5z"></path>
    <g><rect x="153" y="358.3" class="st1" width="61.4" height="1.5"></rect><rect x="153" y="353" class="st1" width="61.4" height="1.5"></rect><rect x="153" y="347.7" class="st1" width="61.4" height="1.5"></rect><rect x="153" y="342.3" class="st1" width="61.4" height="1.5"></rect></g>
    <g><rect x="80.8" y="331.5" class="st1" width="61.4" height="1.5"></rect><rect x="80.8" y="326.1" class="st1" width="61.4" height="1.5"></rect><rect x="80.8" y="320.8" class="st1" width="61.4" height="1.5"></rect><rect x="80.8" y="315.5" class="st1" width="61.4" height="1.5"></rect></g><path class="st12" d="M260.4,363.5h-35.2c-0.9,0-1.6-0.7-1.6-1.6v-17.8c0-0.9,0.7-1.6,1.6-1.6h35.2c0.9,0,1.6,0.7,1.6,1.6v17.8C262,362.8,261.3,363.5,260.4,363.5z"></path></g><g class="widow-3"><path class="st12" d="M213.5,389.8h-58.2c-0.9,0-1.6-0.7-1.6-1.6v-17.8c0-0.9,0.7-1.6,1.6-1.6h58.2c0.9,0,1.6,0.7,1.6,1.6v17.8C215.1,389,214.4,389.8,213.5,389.8z"></path><path class="st7" d="M260.6,390.1h-35.2c-0.9,0-1.6-0.7-1.6-1.6v-17.8c0-0.9,0.7-1.6,1.6-1.6h35.2c0.9,0,1.6,0.7,1.6,1.6v17.8C262.2,389.4,261.5,390.1,260.6,390.1z"></path><path class="st12" d="M142,415.8H83.8c-0.9,0-1.6-0.7-1.6-1.6v-17.8c0-0.9,0.7-1.6,1.6-1.6H142c0.9,0,1.6,0.7,1.6,1.6v17.8C143.6,415,142.9,415.8,142,415.8z"></path>
        <g><rect x="154.2" y="411.5" class="st1" width="61.4" height="1.5"></rect><rect x="154.2" y="406.3" class="st1" width="61.4" height="1.5"></rect><rect x="154.2" y="400.9" class="st1" width="61.4" height="1.5"></rect><rect x="154.2" y="395.5" class="st1" width="61.4" height="1.5"></rect></g>
    <g><rect x="82" y="384.8" class="st1" width="61.4" height="1.5"></rect><rect x="82" y="379.4" class="st1" width="61.4" height="1.5"></rect><rect x="82" y="374" class="st1" width="61.4" height="1.5"></rect><rect x="82" y="368.8" class="st1" width="61.4" height="1.5"></rect></g><path class="st7" d="M213.9,442.9h-58.2c-0.9,0-1.6-0.7-1.6-1.6v-17.8c0-0.9,0.7-1.6,1.6-1.6h58.2c0.9,0,1.6,0.7,1.6,1.6v17.8C215.5,442.1,214.8,442.9,213.9,442.9z"></path><path class="st11" d="M261,443.3h-35.2c-0.9,0-1.6-0.7-1.6-1.6v-17.8c0-0.9,0.7-1.6,1.6-1.6H261c0.9,0,1.6,0.7,1.6,1.6v17.8C262.6,442.5,261.9,443.3,261,443.3z"></path><path class="st7" d="M142.4,468.9H84.2c-0.9,0-1.6-0.7-1.6-1.6v-17.8c0-0.9,0.7-1.6,1.6-1.6h58.2c0.9,0,1.6,0.7,1.6,1.6v17.8C144,468.1,143.3,468.9,142.4,468.9z"></path>
    <g><rect x="154.6" y="464.6" class="st1" width="61.4" height="1.5"></rect><rect x="154.6" y="459.4" class="st1" width="61.4" height="1.5"></rect><rect x="154.6" y="454" class="st1" width="61.4" height="1.5"></rect><rect x="154.6" y="448.6" class="st1" width="61.4" height="1.5"></rect></g>
    <g><rect x="82.4" y="437.9" class="st1" width="61.4" height="1.5"></rect><rect x="82.4" y="432.5" class="st1" width="61.4" height="1.5"></rect><rect x="82.4" y="427.1" class="st1" width="61.4" height="1.5"></rect><rect x="82.4" y="421.9" class="st1" width="61.4" height="1.5"></rect></g><path class="st12" d="M261,468.9h-35.2c-0.9,0-1.6-0.7-1.6-1.6v-17.8c0-0.9,0.7-1.6,1.6-1.6H261c0.9,0,1.6,0.7,1.6,1.6v17.8C262.6,468.1,261.9,468.9,261,468.9z"></path></g></g></g></g><polygon style="display:none" class="st12" points="233.3,90 167.6,231.7 95.4,231.7 160.5,90 "></polygon></g>
    <g><path class="st13" d="M280.9,19.5l13.6,8.4c9.8,6.1,13.3,18.7,8.1,29c-1,2-1.7,3.4-1.6,3.2c0.5-0.6-20.8-40.4-20.8-40.4"></path><path class="st14" d="M245.6,149.3h-7c-6.4,0-11.7-5.3-11.7-11.7v-33c0-6.4,5.3-11.7,11.7-11.7h7c6.4,0,11.7,5.3,11.7,11.7v33C257.3,144,252,149.3,245.6,149.3z"></path><path class="st13" d="M300.8,60.1c0.3,2.7-12.1,7.2-12.3,10l2,5.6c-15.3-5.5-1.8,2.9-1.8,2.9c-4.5,13.5-3,20.9-15.9,26.1c-6.5,2.6-13.6,3.7-21,3.2c-9.9-0.7-18.7,2.4-25.9-1c-1.5-0.7-2.9-1.7-4.2-3c-2.5-2.5-4.8-5.3-6.7-8.3c-0.7-1.2-1.4-2.4-2.1-3.6c-3.9-7.6-11.9-29.7-11.3-38.8c1.8-25.7,26.4-42.9,54.8-41c0.7,0.1,1.4,0.1,2.2,0.1c15.3,1.1,28.4,9.2,36.4,21c0.4,0.6,0.8,1.3,1.2,1.9c0,0,0,0,0,0c2.3,3.7,3.5,19.8,3.5,19.8C300.2,56.6,300.6,58.3,300.8,60.1z"></path><path class="st15" d="M299.6,68.3l-0.4,7.1l-0.6,11.7l-1,4.1c-0.1,1.8-1,11.5-1.4,13.3c-3.2,16.6-14.1,20.1-31,22.2c-0.5,0.1-1,0.1-1.5,0.1c-1.8,0.2-3.6,0.2-5.5,0.1c-1.8-0.1-3.6-0.3-5.3-0.6c-3.4-0.6-6.6-1.7-9.6-3.1c0,0,0,0,0,0c-7.5-3.5-13.6-9.3-17.6-16.3c-3-5.3-4.8-11.4-5-17.8c0-0.4,0-0.9,0-1.3c0-0.5,0-1,0-1.6v-0.3l0-1.3l0.2-3.3l0.6-11.5l0-0.1v0l0.1-2.1l0.1-1.7l0.1-1.5l0-0.4c0.2-2.7,0.7-5.2,1.5-7.7c0.5-1.7,1.2-3.4,1.9-5c0.1-0.3,0.2-0.5,0.3-0.7c0.6-1.3,1.3-2.6,2-3.9c0,0,0,0,0,0c2.8-4.8,6.7-8.9,11.2-12c0.9-0.6,1.8-1.3,2.8-1.8c6.6-3.9,14.3-5.9,22.5-5.5c6.8,0.4,11.8,2.4,17.3,5.7c3.3,2,6.3,4.4,8.9,7.3c3.7,4,6,8.7,7.8,13.8c0.1,0.3,0.2,0.6,0.3,0.9c0.5,1.7,0.9,3.4,1.1,5.2C299.7,62.7,299.8,65.5,299.6,68.3z"></path><path class="st13" d="M285.4,33.3c8.3,22.8-13.5,20.9-14.5,31.4c-0.1,1.2-0.5,2.9-0.8,11.5l-1.7,5.4c-0.5,1.7-2,2.8-3.8,2.8c-2.2,0-3.9-1.8-3.9-3.9v-0.1l0.2-8.5l-4.2,11.3c-3.1,8.1-7.7,15.5-13.6,21.7c-4.9,5.1-10.6,9.5-16.9,12.8c0,0-26.6-15.8-26.6-51.9c0-2.9,0.2-5.9,0.5-9c0.3-2.8,0.8-5.4,1.4-7.9c11-44.8,66.1-29.5,71.4-27.5C278.4,23.4,285.4,33.3,285.4,33.3z"></path><path class="st15" d="M304.3,92.5c0,0.1,0,0.6,0,0.6c-0.1,2.5-2.2,4.4-7.5,4.3l0.7-19.3C301.8,84.6,303.9,88.4,304.3,92.5z"></path><path class="st13" d="M301.4,69.2h-11.8c-1.4,0-2.5-1.1-2.5-2.5l0,0c0-1.4,1.1-2.5,2.5-2.5h11.8c1.4,0,2.5,1.1,2.5,2.5v0C303.9,68,302.8,69.2,301.4,69.2z"></path><path class="st16 eye" d="M294.8,78L294.8,78c-1,0-1.8-0.8-1.8-1.8v-2.6c0-1,0.8-1.8,1.8-1.8l0,0c1,0,1.8,0.8,1.8,1.8v2.6 C296.6,77.2,295.8,78,294.8,78z"></path><path class="st17" d="M243,104.8c-4.9,5.1-10.6,9.5-16.9,12.8c0,0-26.6-15.8-26.6-51.9c0-2.9,0.2-5.9,0.5-9c0.3-2.8,0.8-5.4,1.4-7.9c1.2,6.9,4.3,17.3,12.2,30.1C225.7,98.5,238.7,103.6,243,104.8z"></path><path class="st13" d="M296.7,103.3l-0.4,13.5c0,11.5-13.6,16.1-23.7,15l-16.1-1.7l1.6-13.9l4.4-26.7l-7.1-19.9l14.6,6.1l0,0c-1.1,15.8,10.2,28.6,26.1,27.9L296.7,103.3z"></path><path class="st14" d="M259.7,69c1.6,0,2.9,1.3,2.9,3l-0.1,10l-0.1,8.8l-3.4,0c-0.3,0-0.5,0-0.7,0c-5.8-0.4-10.3-5.5-10.3-11.2c0-3,1.3-5.5,3.3-7.5c1.8-1.8,4.2-2.8,6.9-2.9l0,0c0.3,0,0.6-0.1,0.9,0L259.7,69z"></path>
        <g><rect x="156.3" y="362.2" transform="matrix(-1 -1.224647e-16 1.224647e-16 -1 405.1934 741.5223)" class="st16" width="92.6" height="17.1"></rect><line class="st10" x1="124.7" y1="521.5" x2="124.7" y2="528"></line><rect x="510.4" y="363.7" transform="matrix(-1 -1.224647e-16 1.224647e-16 -1 1105.5717 744.4067)" class="st18" width="84.8" height="17.1"></rect><rect x="581.5" y="305.6" class="st18" width="19.3" height="240.5"></rect><rect x="504.1" y="304.2" class="st19" width="19.3" height="241.9"></rect><rect x="504.1" y="294.4" class="st18" width="19.3" height="103.2"></rect><rect x="47.7" y="363.7" transform="matrix(-1 -1.224647e-16 1.224647e-16 -1 180.2384 744.4067)" class="st18" width="84.8" height="17.1"></rect><rect x="118.9" y="305.6" class="st18" width="19.3" height="240.5"></rect><rect x="41.4" y="304.2" class="st18" width="19.3" height="241.9"></rect>
        <g><rect x="398.4" y="144.1" class="st20" width="63.7" height="137"></rect>
        <g>
        <g><path class="st21" d="M529.7,236.1H320.4V108.2c0-4.6,3.7-8.4,8.4-8.4h192.6c4.6,0,8.4,3.7,8.4,8.4V236.1z"></path><path class="st21" d="M510.1,256.5h-174c-9.7,0-17.6-7.9-17.6-17.6v-6.8h209.3v6.8C527.7,248.6,519.8,256.5,510.1,256.5z"></path><path class="st22" d="M522.5,108.2v127.8H313.2V108.2c0-4.6,3.7-8.3,8.4-8.3h192.6C518.8,99.9,522.5,103.6,522.5,108.2z"></path><path class="st23" d="M514.9,107.9v116.3c0,0.4-0.4,0.8-0.8,0.8H321.6c-0.4,0-0.8-0.4-0.8-0.8V107.9c0-0.4,0.4-0.8,0.8-0.8h192.5C514.6,107.2,514.9,107.5,514.9,107.9z"></path><path class="st24" d="M522.5,232.1v6.8c0,7.1-4.2,13.2-10.2,16c-2.3,1.1-4.8,1.7-7.5,1.7h-174c-9.7,0-17.6-7.9-17.6-17.6v-6.8H522.5z"></path></g>
    <g><g class="line-1 go"><rect x="332.1" y="121.5" class="st6" width="65" height="2.3"></rect><rect x="400.2" y="121.5" class="st7" width="21.6" height="2.3"></rect><rect x="425.3" y="121.5" class="st21" width="30.8" height="2.3"></rect><rect x="458.8" y="121.5" class="st6" width="7.3" height="2.3"></rect><rect x="469.8" y="121.5" class="st8" width="30.8" height="2.3"></rect></g><g class="line-2 go"><rect x="332.1" y="131.1" class="st7" width="24.4" height="2.3"></rect><rect x="359.5" y="131.1" class="st6" width="41.9" height="2.3"></rect><rect x="405" y="131.1" class="st6" width="10.5" height="2.3"></rect><rect x="418.2" y="131.1" class="st6" width="27.6" height="2.3"></rect><rect x="449.4" y="131.1" class="st21" width="51.1" height="2.3"></rect></g><g class="line-3 go"><rect x="332.1" y="140.8" class="st21" width="24.4" height="2.3"></rect><rect x="359.5" y="140.8" class="st6" width="41.9" height="2.3"></rect></g><g class="line-4 go"><rect x="332.1" y="150.4" transform="matrix(-1 -1.224647e-16 1.224647e-16 -1 706.0693 302.9631)" class="st6" width="41.9" height="2.3"></rect><rect x="377" y="150.4" transform="matrix(-1 -1.224647e-16 1.224647e-16 -1 778.4532 302.9631)" class="st21" width="24.4" height="2.3"></rect></g><g class="line-5 go"><rect x="332.1" y="160" transform="matrix(-1 -1.224647e-16 1.224647e-16 -1 694.9562 322.1712)" class="st8" width="30.8" height="2.3"></rect><rect x="366.5" y="160" transform="matrix(-1 -1.224647e-16 1.224647e-16 -1 740.3074 322.1712)" class="st6" width="7.3" height="2.3"></rect><rect x="376.5" y="160" transform="matrix(-1 -1.224647e-16 1.224647e-16 -1 783.8606 322.1712)" class="st21" width="30.8" height="2.3"></rect><rect x="410.9" y="160" transform="matrix(-1 -1.224647e-16 1.224647e-16 -1 843.3629 322.1712)" class="st5" width="21.6" height="2.3"></rect><rect x="435.5" y="160" transform="matrix(-1 -1.224647e-16 1.224647e-16 -1 936.0677 322.1712)" class="st6" width="65" height="2.3"></rect></g><g class="line-6 go"><rect x="332.1" y="169.6" class="st7" width="24.4" height="2.3"></rect><rect x="359.5" y="169.6" class="st6" width="41.9" height="2.3"></rect><rect x="405" y="169.6" class="st6" width="10.5" height="2.3"></rect><rect x="418.2" y="169.6" class="st6" width="27.6" height="2.3"></rect><rect x="449.4" y="169.6" class="st21" width="51.1" height="2.3"></rect></g><g class="line-7 go"><rect x="332.1" y="179.2" class="st6" width="65" height="2.3"></rect><rect x="400.2" y="179.2" class="st5" width="21.6" height="2.3"></rect><rect x="425.3" y="179.2" class="st21" width="30.8" height="2.3"></rect><rect x="458.8" y="179.2" class="st6" width="7.3" height="2.3"></rect><rect x="469.8" y="179.2" class="st8" width="30.8" height="2.3"></rect></g><g class="line-8 go"><rect x="332.1" y="188.8" class="st6" width="24.4" height="2.3"></rect><rect x="359.5" y="188.8" class="st6" width="41.9" height="2.3"></rect><rect x="405" y="188.8" class="st6" width="10.5" height="2.3"></rect><rect x="418.2" y="188.8" class="st6" width="27.6" height="2.3"></rect><rect x="449.4" y="188.8" class="st6" width="51.1" height="2.3"></rect></g><g class="line-9 go"><rect x="332.1" y="198.8" class="st21" width="24.4" height="2.3"></rect><rect x="359.5" y="198.8" class="st6" width="41.9" height="2.3"></rect></g><g class="line-10 go"><rect x="332.1" y="209.1" class="st7" width="24.4" height="2.3"></rect><rect x="359.5" y="209.1" class="st6" width="41.9" height="2.3"></rect><rect x="405" y="209.1" class="st6" width="10.5" height="2.3"></rect><rect x="418.2" y="209.1" class="st6" width="27.6" height="2.3"></rect><rect x="449.4" y="209.1" class="st21" width="51.1" height="2.3"></rect></g></g></g><path class="st25" d="M460.6,284.6h-85.3c-2.6,0-4.7-2.1-4.7-4.7v0c0-2.6,2.1-4.7,4.7-4.7h85.3c2.6,0,4.7,2.1,4.7,4.7v0C465.3,282.5,463.2,284.6,460.6,284.6z"></path></g><path class="st26" d="M617.3,305.4H348.2v-13.9c0-4.2,3.4-7.6,7.6-7.6h253.9c4.2,0,7.6,3.4,7.6,7.6V305.4z"></path>
    <g><path class="st27" d="M538.9,291.5v13.9H20.8v-13.9c0-4.2,3.4-7.6,7.6-7.6h502.9C535.5,283.9,538.9,287.3,538.9,291.5z"></path><path class="st28" d="M389,283.9c-4.1,6.7-9,14.7-13.2,21.5H249l1.7-21.5H389z"></path></g>
    <g><rect x="644.3" y="379.2" transform="matrix(-1 -7.510710e-07 7.510710e-07 -1 1421.6571 925.2841)" class="st29" width="133.1" height="166.8"></rect><rect x="597.1" y="379.2" transform="matrix(-1 -7.642572e-07 7.642572e-07 -1 1324.9957 925.2845)" class="st30" width="130.8" height="166.8"></rect>
        <g><rect x="595.6" y="391.7" transform="matrix(-1 -1.224647e-16 1.224647e-16 -1 1315.2896 828.5646)" class="st31" width="124.1" height="45.1"></rect><rect x="595.6" y="444.7" transform="matrix(-1 -1.224647e-16 1.224647e-16 -1 1315.2896 934.4925)" class="st31" width="124.1" height="45.1"></rect><rect x="595.6" y="497.6" transform="matrix(-1 -1.224647e-16 1.224647e-16 -1 1315.2896 1043.7041)" class="st31" width="124.1" height="48.4"></rect></g>
    <g><path class="st4" d="M635.1,416.7h31c1.3,0,2.4-1.1,2.4-2.4l0,0c0-1.3-1.1-2.4-2.4-2.4h-31c-1.3,0-2.4,1.1-2.4,2.4l0,0C632.7,415.6,633.7,416.7,635.1,416.7z"></path><path class="st4" d="M633.9,469.3h31c1.3,0,2.4-1.1,2.4-2.4l0,0c0-1.3-1.1-2.4-2.4-2.4h-31c-1.3,0-2.4,1.1-2.4,2.4l0,0C631.5,468.2,632.5,469.3,633.9,469.3z"></path><path class="st4" d="M633.9,521.9h31c1.3,0,2.4-1.1,2.4-2.4v0c0-1.3-1.1-2.4-2.4-2.4h-31c-1.3,0-2.4,1.1-2.4,2.4l0,0C631.5,520.8,632.5,521.9,633.9,521.9z"></path></g></g>
    <g>
        <g><path class="st29" d="M293.5,556.3l62.2,0.7c3.7,0,6.7-2.9,6.8-6.6l0,0c0-2.9-1.7-5.4-4.4-6.4l-30.7-11.1l-33.6,0.5L293.5,556.3z"></path><path class="st16" d="M356.9,558.7l-63-0.2l0-4.5l67.5,0.2l0,0C361.4,556.7,359.4,558.7,356.9,558.7z"></path></g>
    <g><line class="st32" x1="326.6" y1="541.9" x2="333.9" y2="534.1"></line><line class="st32" x1="331.9" y1="544.2" x2="339.3" y2="536.4"></line><line class="st32" x1="337" y1="547.2" x2="345.3" y2="538.4"></line></g>
    <g><path class="st33" d="M291.4,535.8c3.6-60.7,2.6-116.8-2.1-128.1c-4.8-7.1-42.6-22.3-80.4-24l17.7-38.6c49.5,2.5,84.9,21.1,97.3,42.3c5.2,9,9.8,27,7.3,88.9c-1.3,32.4-2.9,57.8-2.9,57.8L291.4,535.8z"></path></g>
    <g><path class="st34" d="M348.9,557.8l62.2,0.4c3.7,0,6.7-3,6.8-6.7l0,0c0-2.9-1.8-5.4-4.5-6.4l-30.7-10.9l-33.6,0.6L348.9,557.8z"></path><path class="st16" d="M412.3,560l-64,0l0-4.5l68.5,0l0,0C416.8,558,414.8,560,412.3,560z"></path></g>
    <g><line class="st32" x1="381.9" y1="543.3" x2="389.2" y2="535.5"></line><line class="st32" x1="387.3" y1="545.6" x2="394.6" y2="537.8"></line><line class="st32" x1="392.4" y1="548.6" x2="400.6" y2="539.8"></line></g>
    <g><path class="st33" d="M346.6,535.8c3.6-60.7,2.6-116.8-2.1-128.1c-4.8-7.1-42.6-22.3-80.4-24l17.7-38.6c49.5,2.5,84.9,21.1,97.3,42.3c5.2,9,9.8,27,7.3,88.9c-1.3,32.4-2.9,57.8-2.9,57.8L346.6,535.8z"></path></g><path class="st33" d="M293.4,356.3c0,6.8-2.4,13-6.4,17.9c-5.1,6.2-12.9,10.2-21.7,10.2h-47.2c-1.4,0-2.8-0.1-4.1-0.3c-3.5-0.5-6.7-1.6-9.6-3.3c-0.5-0.3-1-0.6-1.5-0.9c-7.7-5-12.8-13.7-12.8-23.5l0.9-15l101.7-0.9L293.4,356.3z"></path>
    <g>
        <g>
        <g><path class="st14" d="M325.8,276.3l24.3-3.9c1.8-0.3,3-2,2.7-3.7l0,0c-0.3-1.8-2-3-3.7-2.7l-24.3,3.9c-1.8,0.3-3,2-2.7,3.7l0,0C322.4,275.3,324.1,276.5,325.8,276.3z"></path><path class="st14" d="M333.6,282.8l19.5-3.1c1.8-0.3,3-2,2.7-3.7l0,0c-0.3-1.8-2-3-3.7-2.7l-19.5,3.1c-1.8,0.3-3,2-2.7,3.7l0,0C330.1,281.9,331.8,283.1,333.6,282.8z"></path><path class="st14" d="M329.1,291.4l23.1-3.7c1.8-0.3,3-2,2.7-3.7l0,0c-0.3-1.8-2-3-3.7-2.7l-23.1,3.7c-1.8,0.3-3,2-2.7,3.7l0,0C325.6,290.4,327.3,291.6,329.1,291.4z"></path></g><path class="st14" d="M336.3,270c-0.3,0-3.2,0-6.5-0.1c-5.6-0.1-11.1,1.1-16.1,3.6l-9.6,4.7c0,0,5.5,16.3,6.3,16.4c18.5,3.3,24.8-5.1,24.8-5.1L336.3,270z"></path></g><rect x="313.8" y="269.9" class="st4" width="8.2" height="26.7"></rect></g>
    <g><path class="st33" d="M260,299.5c-19.4,0-37.1-11.3-45.2-28.9l-0.4-0.9L189,192.3l31.2-10.2l24.7,75.4c2.9,5.6,8.8,9.2,15.2,9.1l53.8-0.5l0.3,32.9l-53.8,0.5C260.3,299.5,260.1,299.5,260,299.5z"></path></g>
    <g>
        <g><path class="st14" d="M435.7,267.6c-2-3.6-5-6.5-8.7-8.3c0,0-0.1,0-0.1,0c-5-2.5-10.5-3.7-16.1-3.6l-10.7,0.2c0,0-2.7,23.2-2.6,22.4c0.3-1.5,26.1-1.1,38-0.9c2.6,0.1,4.2-2.7,3-4.9L435.7,267.6z"></path></g><rect x="393.5" y="254.1" class="st4" width="10.2" height="27.3"></rect></g>
    <g><path class="st35" d="M343.6,284.6c-19.4,0-37.1-11.3-45.2-28.9l-36.5-79l29.8-13.8l36.5,79c2.8,6,8.8,9.9,15.5,9.8l53.8-0.5l0.3,32.9l-53.8,0.5C343.9,284.6,343.8,284.6,343.6,284.6z"></path></g><path class="st35" d="M302.1,192.1l-0.6,69l-0.8,87.8c0,0-1.9,2.1-7.5,5.1c-4.9,2.6-12.6,5.8-24.3,8.8c-13.7,3.5-32.9,4.1-49.4,3.7c-18.1-0.4-32.9-2-32.9-2l0.4-172.4c0-24.3,17.6-44.4,40.7-48.5c2.8-0.5,5.6-0.7,8.6-0.7h16.6C280.1,142.9,302.1,164.9,302.1,192.1z"></path>
    <g>
        <g><rect x="225.3" y="418.4" class="st19" width="16.6" height="95.4"></rect><path class="st18" d="M225.3,423.8v20.9l16.6-6.1v-14.1C237.8,424.3,229.8,424,225.3,423.8z"></path></g><path class="st3" d="M284.8,426.7h-99.5c-5.1,0-9.3-4.2-9.3-9.3l0,0c0-5.1,4.2-9.3,9.3-9.3h99.5c5.1,0,9.3,4.2,9.3,9.3l0,0C294,422.5,289.9,426.7,284.8,426.7z"></path>
    <g>
        <g><path class="st3" d="M304.1,544.6h-10.4c0-11.7-10.1-21.2-22.5-21.2h-75.7c-12.4,0-22.5,9.5-22.5,21.2h-10.4c0-17.1,14.8-31,32.9-31h75.7C289.3,513.5,304.1,527.5,304.1,544.6z"></path></g><rect x="221.4" y="498.9" class="st3" width="24.3" height="14.9"></rect></g>
    <g><ellipse class="st16" cx="167.3" cy="554" rx="8.6" ry="8.1"></ellipse><path class="st1" d="M179.8,553.3h-23.6v-2.2c0-6.1,4.9-11,11-11h1.6c6.1,0,11,4.9,11,11V553.3z"></path><ellipse class="st16" cx="299.3" cy="554" rx="8.6" ry="8.1"></ellipse><path class="st1" d="M311.8,553.3h-23.6v-2.2c0-6.1,4.9-11,11-11h1.6c6.1,0,11,4.9,11,11V553.3z"></path></g><rect x="227.1" y="516.6" class="st3" width="13.8" height="29.4"></rect>
    <g><ellipse class="st16" cx="234.3" cy="554" rx="8.6" ry="8.1"></ellipse><path class="st1" d="M246.8,553.3h-23.6v-2.2c0-6.1,4.9-11,11-11h1.6c6.1,0,11,4.9,11,11V553.3z"></path></g></g><path class="st36" d="M101.4,239l22.2,160.6c1.4,9.8,9.6,17.1,19.4,17.4l81.2,0.9l-45.1-202l-57.6,0C109.1,215.9,99.7,226.8,101.4,239z"></path><path class="st37" d="M320.1,417.9H207.2c-9.6,0-17.5-7.9-17.5-17.5v0c0-9.6,7.9-17.5,17.5-17.5h112.9c9.6,0,17.5,7.9,17.5,17.5v0C337.6,410.1,329.7,417.9,320.1,417.9z"></path><path class="st33" d="M213.6,186.9c-2.2,31.7,4,145.9,5.9,179.6c-18.1-0.4-32.9-2-32.9-2l0.4-172.4c0-24.3,17.6-44.4,40.7-48.5C227.7,143.6,216.2,149.6,213.6,186.9z"></path><polygon class="st4" points="270.2,145.9 219.4,145.9 219.4,131.7 270.2,137.7 "></polygon><path class="st37" d="M188.3,395.8l-23.6-164.7c-1.1-7.3,4.5-14.2,12.2-15.1l0,0c7.8-1,15,4.2,16.1,11.5l23.6,164.7c1.1,7.3-4.5,14.2-12.2,15.1l0,0C196.5,408.4,192.5,413.9,188.3,395.8z"></path><path class="st33" d="M301.5,261.1l-0.8,87.8c0,0-1.9,2.1-7.5,5.1l-11.7-132.3C281.5,221.6,292.2,248.4,301.5,261.1z"></path></g></g><path class="st38" d="M522.2,199.7l-5.8,32.5l-4.1,22.7c-2.3,1.1-4.8,1.7-7.5,1.7h-55c5.2-5.4,14-14.5,23.4-24.4c14.7-15.4,31-32.9,38.3-41.8L522.2,199.7z"></path></g>
    <g><path class="st21" d="M492,283.6h108.9c0.6-0.9,1.1-1.9,1.4-2.9l24.4-87.9c1.2-4.2-2-8.3-6.3-8.3h-95.8c-3,0-5.5,2-6.3,4.8L492,283.6z"></path><path class="st5" d="M621.4,189.7L597,277.5c-1.1,4.1-4.9,6.9-9.1,6.9H485.8l27.2-98.3c0.8-2.8,3.4-4.8,6.3-4.8H615C619.4,181.3,622.5,185.5,621.4,189.7z"></path><path class="st23" d="M616,193.5l-19.9,71.6l-4.2,15H490.6l4.2-15l20.8-74.9c0.7-2.6,3.1-4.4,5.9-4.4h88.7C614.2,185.8,617.1,189.7,616,193.5z"></path><g class="626262"><g class="line-1 go"><polygon class="st40" points="556.3,195.6 525.1,195.6 525.8,193.4 557,193.4 "></polygon><polygon class="st5" points="568.1,195.6 557.8,195.6 558.5,193.4 568.8,193.4 "></polygon><polygon class="st7" points="584.6,195.6 569.8,195.6 570.5,193.4 585.3,193.4 "></polygon><polygon class="st6" points="589.4,195.6 585.9,195.6 586.6,193.4 590.1,193.4 "></polygon><polygon class="st5" points="605.9,195.6 591.2,195.6 591.8,193.4 606.6,193.4 "></polygon></g><g class="line-2 go"><polygon class="st7" points="533.9,204.9 522.2,204.9 522.9,202.7 534.5,202.7 "></polygon><polygon class="st6" points="555.4,204.9 535.3,204.9 536,202.7 556.1,202.7 "></polygon><polygon class="st6" points="562.1,204.9 557.1,204.9 557.8,202.7 562.8,202.7 "></polygon><polygon class="st6" points="576.7,204.9 563.5,204.9 564.2,202.7 577.4,202.7 "></polygon><polygon class="st7" points="603,204.9 578.4,204.9 579.1,202.7 603.7,202.7 "></polygon></g><g class="line-3 go"><polygon class="st22" points="532,214.3 520.3,214.3 521,212.1 532.7,212.1 "></polygon><polygon class="st6" points="534.3,214.3 537.8,214.3 538.5,212.1 535,212.1 "></polygon><polygon class="st22" points="551.1,214.3 539.4,214.3 540.1,212.1 551.8,212.1 "></polygon><polygon class="st8" points="552.9,214.3 567.6,214.3 568.3,212.1 553.6,212.1 "></polygon><polygon class="st6" points="589.2,214.3 569.2,214.3 569.8,212.1 589.9,212.1 "></polygon><polygon class="st7" points="603.1,214.3 590.8,214.3 591.4,212.1 603.7,212.1 "></polygon></g><g class="line-4 go"><polygon class="st6" points="517.1,223.6 537.2,223.6 537.9,221.4 517.8,221.4 "></polygon><polygon class="st6" points="559.3,223.6 539.2,223.6 539.9,221.4 560,221.4 "></polygon><polygon class="st22" points="561.2,223.6 576,223.6 576.7,221.4 561.9,221.4 "></polygon><polygon class="st8" points="577.7,223.6 592.4,223.6 593.1,221.4 578.4,221.4 "></polygon><polygon class="st6" points="594.3,223.6 597.8,223.6 598.5,221.4 595,221.4 "></polygon></g><g class="line-5 go"><polygon class="st8" points="514.9,233 530.5,233 531.2,230.8 515.6,230.8 "></polygon><polygon class="st6" points="532.3,233 535.8,233 536.5,230.8 533,230.8 "></polygon><polygon class="st22" points="537.1,233 551.9,233 552.6,230.8 537.8,230.8 "></polygon><polygon class="st11" points="565,233 553.3,233 554,230.8 565.7,230.8 "></polygon><polygon class="st7" points="581.5,233 566.7,233 567.4,230.8 582.2,230.8 "></polygon><polygon class="st6" points="582.8,233 586.3,233 587,230.8 583.5,230.8 "></polygon><polygon class="st22" points="596.8,233 587.4,233 587.9,230.8 597.4,230.8 "></polygon></g><g class="line-6 go"><polygon class="st6" points="512,241.4 532.1,241.4 532.8,239.1 512.7,239.1 "></polygon><polygon class="st6" points="554.2,241.4 534.1,241.4 534.8,239.1 554.9,239.1 "></polygon><polygon class="st22" points="556.1,241.4 570.9,241.4 571.6,239.1 556.8,239.1 "></polygon><polygon class="st8" points="572.6,241.4 587.3,241.4 588,239.1 573.3,239.1 "></polygon><polygon class="st6" points="589.2,241.4 592.7,241.4 593.4,239.1 589.9,239.1 "></polygon></g><g class="line-7 go"><polygon class="st7" points="521.5,249.9 509.8,249.9 510.5,247.7 522.1,247.7 "></polygon><polygon class="st6" points="543,249.9 522.9,249.9 523.6,247.7 543.7,247.7 "></polygon><polygon class="st6" points="549.7,249.9 544.7,249.9 545.4,247.7 550.4,247.7 "></polygon><polygon class="st6" points="564.3,249.9 551.1,249.9 551.8,247.7 565,247.7 "></polygon><polygon class="st7" points="590.6,249.9 566,249.9 566.7,247.7 591.3,247.7 "></polygon></g><g class="line-8 go"><polygon class="st6" points="507.4,258.7 527.4,258.7 528.2,256.5 508.1,256.5 "></polygon><polygon class="st6" points="549.6,258.7 529.4,258.7 530.2,256.5 550.3,256.5 "></polygon><polygon class="st22" points="551.5,258.7 566.3,258.7 567,256.5 552.2,256.5 "></polygon><polygon class="st8" points="567.9,258.7 582.6,258.7 583.3,256.5 568.6,256.5 "></polygon><polygon class="st6" points="584.6,258.7 588.1,258.7 588.8,256.5 585.3,256.5 "></polygon></g></g><polygon class="st5" points="597.4,265.2 593.2,280.2 489.3,280.2 493.5,265.2 "></polygon>
    <g><path class="st5" d="M541.5,284.7H417.1c-2.9,0-5.3-2.4-5.3-5.3l0,0c0-2.9,2.4-5.3,5.3-5.3h124.4c2.9,0,5.3,2.4,5.3,5.3l0,0C546.8,282.3,544.4,284.7,541.5,284.7z"></path></g><polygon style="display:none;" class="st40" points="590.4,181.3 588.4,185.8 552.1,265.2 548.4,273.3 509.3,273.3 513,265.2 549.2,185.8 551.3,181.3"></polygon><polygon style="display:none;" class="st40" points="475.3,107.2 421.5,225 363.9,225 417.8,107.2 "></polygon>
    <g>
        <g><path class="st21" d="M588.7,284.3h-72c-2.9,0-5.3-2.4-5.3-5.3l0,0c0-2.9,2.4-5.3,5.3-5.3h72c2.9,0,5.3,2.4,5.3,5.3l0,0C594,282,591.6,284.3,588.7,284.3z"></path></g>
    <g><rect x="552.5" y="277.3" class="st16" width="10.3" height="3.1"></rect><rect x="542" y="277.3" class="st16" width="7.5" height="3.1"></rect></g></g></g>
    <g>
        <g><path class="st41" d="M487.3,241.5v43.1h-36v-43.1c0-1.9,1.5-3.4,3.4-3.4h29.1C485.8,238.1,487.3,239.6,487.3,241.5z"></path>
        <g><path class="st7" d="M451.8,277.2c-0.5-0.3-11.5-6.7-12.5-18.1c-0.4-4.3,1.3-7,2.7-8.5c4-4.1,10.5-3.8,11.3-3.8l-0.3,5.3c-1.3-0.1-5.3,0.2-7.2,2.2c-1,1-1.4,2.5-1.2,4.4c0.8,8.6,9.8,13.9,9.9,14L451.8,277.2z"></path></g></g><g xmlns="http://www.w3.org/2000/svg"><path class="st4" d="M466.9,257.5v-3c0,0,0.5-1.9,2.2-2c1.7-0.2,7.8,0,7.8,0s2.3,0.3,2.3,2.3s0,8,0,8s-0.2,1.9-2,2.2h-2.3v-4.5 c0,0,0.1-3.1-2.8-3.1C469.2,257.5,466.9,257.5,466.9,257.5z"></path><path class="st4" d="M474.3,265.2v3c0,0-0.5,1.9-2.2,2c-1.7,0.2-7.8,0-7.8,0s-2.2-0.3-2.2-2.3c0-2,0-8,0-8s0.2-1.9,2-2.2h2.3v4.5 c0,0-0.1,3.1,2.8,3.1C472,265.2,474.3,265.2,474.3,265.2z"></path><path class="st4" d="M459.5,249.9h3.9c0.6,0,1,0.5,1,1v3.9c0,0.6-0.5,1-1,1h-3.9c-0.6,0-1-0.5-1-1v-3.9 C458.4,250.3,458.9,249.9,459.5,249.9z"></path></g><path class="st7" d="M470.5,284.6h-19.2v-43.1c0-1.9,1.5-3.4,3.4-3.4h1.2c0.1,2.2,0.7,19.4,5.5,31.8C465.6,280.7,469.4,283.8,470.5,284.6z"></path><path class="st42" d="M439.3,259.1c0.9,10.2,9.9,16.5,12.1,17.8v7.7h19.2c-1.1-0.8-4.9-3.9-9.1-14.7c-4.8-12.4-5.4-29.6-5.5-31.8h-1.2c-1.9,0-3.4,1.5-3.4,3.4v5.4c-2.4,0.2-6.5,0.9-9.4,3.8C440.5,252.1,438.9,254.8,439.3,259.1z M445.7,254.3c1.4-1.4,3.8-2,5.6-2.2v18.2c-2.7-2.3-6.3-6.4-6.8-11.7C444.4,256.8,444.7,255.4,445.7,254.3z"></path></g>
    <g>
        <g><rect x="71.5" y="203.8" transform="matrix(0.9847 0.1743 -0.1743 0.9847 41.6139 -9.2738)" class="st43" width="4.1" height="57.1"></rect><rect x="74.2" y="202.7" transform="matrix(0.9847 0.1743 -0.1743 0.9847 38.001 -10.2652)" class="st43" width="6.4" height="17.2"></rect></g>
    <g><polygon class="st44" points="63.9,268 59.8,267.7 64.5,210.7 67,207.1 68.7,211.1 "></polygon></g>
    <g><polygon class="st45" points="58.1,270.9 54.1,271.7 43.2,215.6 44.6,211.4 47.2,214.8 "></polygon></g>
    <g><polygon class="st46" points="67.3,284 49.6,284 43.8,237.1 73.1,237.1 "></polygon><polygon class="st47" points="74,284 56.3,284 53.6,237.1 79.8,237.1 "></polygon></g></g>
    <g>
        <g><path class="st37" d="M620.2,354.6v25.8h90c5.6,0,10.4-3.6,12.1-8.6c0.5-1.3,0.7-2.8,0.7-4.3c0-3.5-1.4-6.8-3.8-9.1c-2.3-2.3-5.6-3.8-9.1-3.8H620.2z"></path><path class="st42" d="M640.4,371.8v8.6h69.9c5.6,0,10.4-3.6,12.1-8.6H640.4z"></path><path class="st36" d="M601,354.6l0,25.8l59,0c7.1,0,12.9-5.8,12.9-12.9c0-3.6-1.4-6.8-3.8-9.1c-2.3-2.3-5.6-3.8-9.1-3.8L601,354.6z"></path><path class="st4" d="M601,359l0,16.5l55.6,0c4.6,0,8.3-3.7,8.3-8.3c0-2.3-0.9-4.3-2.4-5.8c-1.5-1.5-3.6-2.4-5.8-2.4L601,359z"></path></g>
    <g><path class="st48" d="M618.5,303.3v25.8l90,0c7.1,0,12.9-5.8,12.9-12.9c0-3.6-1.4-6.8-3.8-9.1c-2.3-2.3-5.6-3.8-9.1-3.8L618.5,303.3z"></path><path class="st49" d="M638.9,311.9v-8.6h69.9c5.6,0,10.4,3.6,12.1,8.6H638.9z"></path><path class="st50" d="M601,303.3v25.8l59,0c7.1,0,12.9-5.8,12.9-12.9c0-3.6-1.4-6.8-3.8-9.1c-2.3-2.3-5.6-3.8-9.1-3.8L601,303.3z"></path><path class="st4" d="M601,307.7v16.5l55.6,0c4.6,0,8.3-3.7,8.3-8.3c0-2.3-0.9-4.3-2.4-5.8c-1.5-1.5-3.6-2.4-5.8-2.4L601,307.7z"></path></g>
    <g><path class="st9" d="M613.8,329.2V355h90c7.1,0,12.9-5.8,12.9-12.9c0-2.2-0.5-4.3-1.5-6.1c-0.6-1.1-1.4-2.2-2.3-3.1c-2.3-2.3-5.6-3.8-9.1-3.8H613.8z"></path><path class="st51" d="M616.2,329.2v6.8h99c-0.6-1.1-1.4-2.2-2.3-3.1c-2.3-2.3-5.6-3.8-9.1-3.8H616.2z"></path><path class="st51" d="M616.2,355.1v-6.8l99,0c-0.6,1.1-1.4,2.2-2.3,3.1c-2.3,2.3-5.6,3.8-9.1,3.8L616.2,355.1z"></path><path class="st52" d="M590.3,329.2V355l54,0c7.1,0,12.9-5.8,12.9-12.9c0-3.6-1.4-6.8-3.8-9.1c-2.3-2.3-5.6-3.8-9.1-3.8L590.3,329.2z"></path><path class="st4" d="M590.3,333.7v16.5l50.6,0c4.6,0,8.3-3.7,8.3-8.3c0-2.3-0.9-4.3-2.4-5.8c-1.5-1.5-3.6-2.4-5.8-2.4L590.3,333.7z"></path></g></g>
    <g>
        <g>
        <g><path class="st16" d="M627.7,177.8L627.7,177.8c-4.3-4.6-3.9-11.7,0.8-15.8l0.5-0.5c4.8-4.2,12.1-3.8,16.4,0.8v0c4.3,4.6,3.9,11.7-0.8,15.8l-0.5,0.5C639.4,182.8,632,182.4,627.7,177.8z"></path><path class="st31" d="M636.9,200.1l-11.3,9.9l-32.2-34.3l11.3-9.9c7.9-6.8,19.1-7.7,27.9-3c2.2,1.2,4.2,2.7,6,4.7c4.4,4.7,6.5,10.8,6.2,16.7C644.4,190.1,641.8,195.9,636.9,200.1z"></path><path class="st8" d="M626.6,189.2l-11.3,9.9l-21.9-23.4l11.3-9.9c7.9-6.8,19.1-7.7,27.9-3c1.5,3.3,2.2,6.9,2,10.4C634.2,179.1,631.6,184.9,626.6,189.2z"></path></g><path class="st5" d="M626.1,209.9c-3.4,3.1-13.5-2-22.6-11.4c-9-9.4-13.6-19.4-10.2-22.5c2.7-2.4,9.6,0.3,16.8,6.1c1.9,1.6,3.9,3.3,5.7,5.3c2.2,2.3,4.1,4.6,5.8,6.9C626.7,201.2,628.7,207.6,626.1,209.9z"></path><path class="bulb" d="M621.7,194.2c-2.6,2.9-7.1,3.7-10.7,1.7c-4.1-2.2-5.6-7.3-3.2-11.3c0.6-1.1,1.5-1.9,2.4-2.6 c1.9,1.6,3.9,3.3,5.7,5.3C618.1,189.7,620.1,192,621.7,194.2z"></path></g><polyline class="st53" points="685,288.8 714.3,194 654.9,154.4 642.4,165 "></polyline>
    <g><path class="st16" d="M661.4,154.9c0,3.9-3.3,7-7.3,7c-4,0-7.3-3.2-7.3-7c0-3.9,3.3-7,7.3-7C658.1,147.9,661.4,151,661.4,154.9z"></path><path class="st10" d="M657.7,154.9c0,1.9-1.6,3.5-3.7,3.5c-2,0-3.7-1.6-3.7-3.5c0-1.9,1.6-3.5,3.7-3.5C656.1,151.4,657.7,153,657.7,154.9z"></path></g><path class="st10" d="M714.5,303.6h-75.7l0,0c0-8.3,6.7-15,15-15h45.6C707.8,288.6,714.5,295.3,714.5,303.6L714.5,303.6z"></path><rect x="654.5" y="284.8" class="st16" width="13.7" height="4.1"></rect>
    <g><ellipse class="st16" cx="713.7" cy="195" rx="10.2" ry="9.9"></ellipse><ellipse class="st10" cx="713.7" cy="195" rx="5.1" ry="4.9"></ellipse></g></g>
    <g>
        <g><path class="st54 left-right" d="M779.4,309.2c-11.1,15.1-33.4,17.6-33.4,17.6s-4.3-22,6.8-37.1c11.1-15.1,33.4-17.6,33.4-17.6 S790.5,294.1,779.4,309.2z"></path><path class="st55 left-left" d="M732.8,300.2c10.2,10,9.6,27.1,9.6,27.1s-17,0.8-27.2-9.2c-10.2-10-9.6-27.1-9.6-27.1 S722.7,290.2,732.8,300.2z"></path><path class="st56 left-center" d="M758.1,292.6c2.1,18.6-12.6,35.6-12.6,35.6s-18-13.3-20.1-31.9c-2.1-18.6,12.6-35.6,12.6-35.6 S756,274,758.1,292.6z"></path></g>
    <g><polygon class="st57" points="756.7,379.6 718.1,379.6 705.4,323.3 769.3,323.3 "></polygon><polygon class="st34" points="771.2,379.6 732.6,379.6 726.9,323.3 783.9,323.3 "></polygon></g></g>
</svg>