<svg id="Layer_1" data-name="Layer 1" xmlns="http://www.w3.org/2000/svg" viewBox="0 0 1258.76 814.41"><defs><style>.cls-1{fill:none;stroke:#84acdb;stroke-linecap:round;stroke-linejoin:round;stroke-width:0.5px;}.cls-18,.cls-2{fill:#fff;}.cls-3,.cls-4,.cls-6,.cls-8{fill:#654da0;}.cls-3,.cls-7{opacity:0.55;}.cls-14,.cls-18,.cls-19,.cls-20,.cls-3,.cls-4,.cls-6{isolation:isolate;}.cls-4{opacity:0.31;}.cls-5{fill:#70cddd;}.cls-6{opacity:0.12;}.cls-9{fill:#425eab;}.cls-10,.cls-20{fill:#6acbd8;}.cls-11{fill:#35495e;}.cls-12{fill:#f8cf29;}.cls-13{fill:#3c4253;}.cls-14{fill:#39a9e0;}.cls-14,.cls-17,.cls-19{opacity:0.5;}.cls-15,.cls-19{fill:#e64c3c;}.cls-16,.cls-18,.cls-20{opacity:0.3;}.cls-21{fill:#f0c419;}</style></defs><title>iot-v4</title><line class="cls-1" x1="33.35" y1="332.12" x2="34.34" y2="332.12"/><rect class="cls-2" x="1.76" y="293.38" width="128.53" height="78.54" rx="1.58" ry="1.58"/><rect class="cls-3" x="12.74" y="333.82" width="6.96" height="30.04" rx="1.03" ry="1.03"/><rect class="cls-3" x="27.14" y="333.82" width="6.96" height="30.04" rx="1.03" ry="1.03"/><rect class="cls-3" x="41.51" y="321.97" width="6.96" height="41.9" rx="1.03" ry="1.03"/><rect class="cls-3" x="55.91" y="316.48" width="6.96" height="47.38" rx="1.03" ry="1.03"/><rect class="cls-3" x="70.28" y="325.09" width="6.96" height="38.78" rx="1.03" ry="1.03"/><rect class="cls-3" x="84.68" y="338.44" width="6.96" height="25.43" rx="1.03" ry="1.03"/><rect class="cls-3" x="100.64" y="325.09" width="6.96" height="38.78" rx="1.03" ry="1.03"/><rect class="cls-3" x="115.03" y="338.44" width="6.96" height="25.43" rx="1.03" ry="1.03"/><rect class="cls-4" x="12.74" y="302.33" width="27.48" height="3.37" rx="0.47" ry="0.47"/><rect class="cls-4" x="12.74" y="314.16" width="18.46" height="3.37" rx="0.47" ry="0.47"/><path class="cls-5" d="M631,86a2.61,2.61,0,1,1-2.61-2.62h0A2.63,2.63,0,0,1,631,86Z"/><path class="cls-5" d="M642,86a2.64,2.64,0,1,1-2.66-2.62h0A2.64,2.64,0,0,1,642,86Z"/><path class="cls-5" d="M652.93,86a2.64,2.64,0,1,1-2.66-2.62h0A2.64,2.64,0,0,1,652.93,86Z"/><path class="cls-5" d="M657.32,86a2.64,2.64,0,1,1-2.66-2.62h0A2.64,2.64,0,0,1,657.32,86Z"/><path class="cls-2" d="M526,10.81H658.17a4.6,4.6,0,0,1,4.61,4.59V120.88a1,1,0,0,1-1,1H523.84a1,1,0,0,1-1-1h0V13.9A3.16,3.16,0,0,1,526,10.81Z"/><rect class="cls-6" x="532.99" y="90.02" width="46.65" height="23.17" rx="2.2" ry="2.2"/><g class="cls-7"><path class="cls-4" d="M601.85,29H535.07a2.14,2.14,0,0,1-2.1-2.13h0a2.1,2.1,0,0,1,2.1-2.1h66.78a2.11,2.11,0,0,1,2.11,2.1h0A2.12,2.12,0,0,1,601.85,29Z"/><path class="cls-4" d="M601.85,37.54H535.07a2.11,2.11,0,0,1-2.1-2.11h0a2.1,2.1,0,0,1,2.08-2.12h66.8a2.11,2.11,0,0,1,2.11,2.1h0a2.13,2.13,0,0,1-2.11,2.11Z"/><path class="cls-4" d="M601.85,46.11H535.07A2.1,2.1,0,0,1,533,44h0a2.11,2.11,0,0,1,2-2.13h66.81A2.13,2.13,0,0,1,604,43.94V44h0a2.11,2.11,0,0,1-2.09,2.12Z"/><path class="cls-4" d="M601.85,54.69H535.07a2.12,2.12,0,0,1-2.1-2.12h0a2.12,2.12,0,0,1,2.09-2.14h66.79A2.13,2.13,0,0,1,604,52.54h0a2.12,2.12,0,0,1-2.09,2.14Z"/><path class="cls-4" d="M601.85,63.27H535.07a2.12,2.12,0,0,1-2.1-2.12h0A2.1,2.1,0,0,1,535,59h66.83A2.11,2.11,0,0,1,604,61.1h0a2.13,2.13,0,0,1-2.09,2.17Z"/><path class="cls-4" d="M591.39,70.48H535.07a2.12,2.12,0,0,1-2.1-2.12h0a2.1,2.1,0,0,1,2.08-2.12h56.34a2.1,2.1,0,0,1,2.14,2.06h0a2.1,2.1,0,0,1-2.08,2.12h0Z"/></g><polygon class="cls-8" points="616.92 108.09 617.75 109.77 619.62 110.03 618.27 111.34 618.58 113.2 616.92 112.32 615.26 113.2 615.58 111.34 614.23 110.03 616.09 109.77 616.92 108.09"/><polygon class="cls-8" points="625.15 108.09 626 109.77 627.84 110.03 626.5 111.34 626.81 113.2 625.15 112.32 623.49 113.2 623.8 111.34 622.46 110.03 624.32 109.77 625.15 108.09"/><polygon class="cls-8" points="633.4 108.09 634.23 109.77 636.09 110.03 634.74 111.34 635.06 113.2 633.4 112.32 631.74 113.2 632.05 111.34 630.7 110.03 632.57 109.77 633.4 108.09"/><polygon class="cls-8" points="641.62 108.09 642.47 109.77 644.32 110.03 642.97 111.34 643.3 113.2 641.62 112.32 639.96 113.2 640.3 111.34 638.95 110.03 640.81 109.77 641.62 108.09"/><polygon class="cls-8" points="649.87 108.09 650.7 109.77 652.54 110.03 651.22 111.34 651.53 113.2 649.87 112.32 648.21 113.2 648.52 111.34 647.18 110.03 649.04 109.77 649.87 108.09"/><path class="cls-9" d="M654.68,7.25H530.89a8,8,0,0,0-8.06,8h0v3.87h140v-3.8a8.09,8.09,0,0,0-8.1-8.07Z"/><circle class="cls-2" cx="640.7" cy="13.2" r="1.29"/><circle class="cls-2" cx="647.12" cy="13.2" r="1.29"/><circle class="cls-2" cx="653.54" cy="13.2" r="1.29"/><rect class="cls-4" x="610.85" y="24.83" width="46.52" height="47" rx="0.89" ry="0.89"/><path class="cls-2" d="M633.58,64.67a16.29,16.29,0,1,1,16.29-16.29h0A16.29,16.29,0,0,1,633.58,64.67Zm0-30.95a14.65,14.65,0,1,0,14.61,14.75h0a14.62,14.62,0,0,0-14.5-14.75Z"/><path class="cls-2" d="M633.58,64.67c-4.09,0-7.38-7.16-7.38-16.29s3.18-16.29,7.38-16.29,7.29,7.14,7.29,16.29S637.66,64.67,633.58,64.67Zm0-30.95c-2.64,0-5.63,6-5.63,14.64S631,63,633.58,63s5.54-6,5.54-14.63-3-14.75-5.54-14.75Z"/><rect class="cls-2" x="618.12" y="47.51" width="30.92" height="1.66"/><path class="cls-2" d="M633.58,42.33c-9,0-12.12-3.17-12.25-3.28l1.18-1.13-.59.57.59-.57s2.9,2.79,11.07,2.79,11.07-2.79,11.07-2.79l1.18,1.16C645.7,39.16,642.56,42.33,633.58,42.33Z"/><path class="cls-2" d="M622.57,58.82l-1.18-1.14c.13-.13,3.28-3.3,12.25-3.3s12.12,3.19,12.25,3.3l-1.19,1.14s-2.89-2.73-11.06-2.73S622.57,58.8,622.57,58.82Z"/><circle class="cls-2" cx="134.29" cy="54.59" r="54.59"/><polygon class="cls-2" points="144.24 99.3 166.4 123.29 163.39 88.55 144.24 99.3"/><path class="cls-4" d="M166,60.34a30.36,30.36,0,0,0,0-11.48h-7.9a24.76,24.76,0,0,0-2.93-7l5.6-5.59a32.49,32.49,0,0,0-8-8.12l-5.6,5.6a24.08,24.08,0,0,0-7-2.93V22.87a30.36,30.36,0,0,0-11.48,0v7.92a24.08,24.08,0,0,0-7,2.93l-5.6-5.6a32.62,32.62,0,0,0-8.16,8.12l5.6,5.59a24.41,24.41,0,0,0-3,7h-7.92a30.36,30.36,0,0,0,0,11.48h7.92a23.43,23.43,0,0,0,2.93,7L107.82,73a32.72,32.72,0,0,0,8.1,8.12l5.6-5.6a24.08,24.08,0,0,0,7,2.93v7.93a30.72,30.72,0,0,0,11.47,0v-8a24.76,24.76,0,0,0,7-2.93l5.65,5.6a32.44,32.44,0,0,0,8.19-8l-5.6-5.6a24.76,24.76,0,0,0,2.93-7Zm-31.7,1.81a7.56,7.56,0,1,1,7.55-7.57h0A7.57,7.57,0,0,1,134.3,62.15Z"/><path class="cls-5" d="M789.73,108.27H747.49A22.51,22.51,0,0,1,725,85.79V43.55a22.51,22.51,0,0,1,22.48-22.48h42.24a22.51,22.51,0,0,1,22.51,22.48V85.79A22.5,22.5,0,0,1,789.73,108.27ZM747.49,25.21A18.41,18.41,0,0,0,729.1,43.6V85.84a18.43,18.43,0,0,0,18.39,18.37h42.24a18.42,18.42,0,0,0,18.4-18.4V43.55a18.4,18.4,0,0,0-18.4-18.34Z"/><path class="cls-5" d="M790.3,61.34a21.93,21.93,0,1,0-43.86.12h0a8,8,0,0,0-5.57,7.37v7.51a7.8,7.8,0,0,0,7.76,7.77c4.28,0,4.67-3.48,4.67-7.77V68.82c0-3.87-.16-7.08-3.39-7.66a18.39,18.39,0,0,1,36.76.1c-2.82.78-2.8,3.87-2.8,7.56v7.52c0,4.29.38,7.77,4.67,7.77a7.77,7.77,0,0,0,7.78-7.76h0V68.82A8,8,0,0,0,790.3,61.34Z"/><path class="cls-5" d="M776.9,68.6c-2.22,0-3,2.65-3.86,5.22-.37,1.19-1.15,3.66-1.74,3.66s-1.36-2.47-1.74-3.66c-.8-2.57-1.64-5.22-3.85-5.22s-3.05,2.65-3.86,5.22c-.38,1.19-1.16,3.66-1.75,3.66s-1.38-2.47-1.75-3.66c-.81-2.57-1.62-5.22-3.89-5.22v2.22a28.08,28.08,0,0,1,1.78,3.66c.81,2.57,1.68,5.22,3.89,5.22s3-2.65,3.86-5.22c.37-1.18,1.15-3.66,1.74-3.66s1.36,2.48,1.74,3.66c.8,2.57,1.65,5.22,3.86,5.22s3.06-2.65,3.87-5.22c.38-1.19,1.19-3.66,1.77-3.66s1.44,2.48,1.81,3.66c.81,2.57.6,5.22,4,5.22V77.48a26.27,26.27,0,0,1-1.87-3.66C780.08,71.21,779.11,68.6,776.9,68.6Z"/><path class="cls-5" d="M92.63,255.7H49.08a17.58,17.58,0,0,1-17.54-17.55V194.59a17.56,17.56,0,0,1,17.54-17.54H92.65a17.56,17.56,0,0,1,17.54,17.54v43.57A17.57,17.57,0,0,1,92.63,255.7ZM49.08,180.23a14.36,14.36,0,0,0-14.34,14.36v43.56a14.38,14.38,0,0,0,14.34,14.36H92.65A14.38,14.38,0,0,0,107,238.15V194.59a14.38,14.38,0,0,0-14.35-14.36Z"/><rect class="cls-5" x="57.75" y="192.97" width="23.12" height="13.85"/><path class="cls-5" d="M57.75,224.33v11.22H80.86V224.33Zm17.7,7.79H63.21v-1.59H75.45Zm0-3.56H63.21V227H75.45Z"/><path class="cls-5" d="M88.74,208.59H87.16A1.63,1.63,0,0,1,85.54,207h0v-6.8c0-.89-1.42-1.61-2.3-1.64v10H55.4v-10c-.89,0-2.37.75-2.37,1.64V207a1.63,1.63,0,0,1-1.64,1.64H49.88a1.63,1.63,0,0,0-1.63,1.63h0V227.8a1.65,1.65,0,0,0,1.62,1.66h5.86V222H82.9v7.54h5.84a1.63,1.63,0,0,0,1.64-1.62v0h0V210.23a1.63,1.63,0,0,0-1.64-1.64Zm-10.69,4.89A1.45,1.45,0,1,1,79.54,212a1.43,1.43,0,0,1-1.42,1.46h-.07Zm4.36,0a1.45,1.45,0,0,1,0-2.9h0A1.43,1.43,0,0,1,83.86,212h0a1.45,1.45,0,0,1-1.44,1.46h0Z"/><path class="cls-5" d="M19.15,135.62a3.8,3.8,0,1,1-3.8-3.81h0a3.79,3.79,0,0,1,3.79,3.79Z"/><path class="cls-5" d="M35.14,135.62a3.8,3.8,0,1,1-3.8-3.81,3.8,3.8,0,0,1,3.8,3.81Z"/><path class="cls-5" d="M51.13,135.62a3.8,3.8,0,1,1-3.8-3.81,3.8,3.8,0,0,1,3.8,3.81Z"/><path class="cls-5" d="M67.11,135.62a3.8,3.8,0,1,1-3.79-3.81h0a3.79,3.79,0,0,1,3.79,3.79Z"/><path class="cls-5" d="M83.1,135.62a3.8,3.8,0,1,1-3.8-3.81,3.8,3.8,0,0,1,3.8,3.81Z"/><path class="cls-5" d="M99.09,135.62a3.8,3.8,0,1,1-3.8-3.81h0a3.79,3.79,0,0,1,3.79,3.79Z"/><path class="cls-5" d="M14.9,640.43a4.25,4.25,0,1,1-4.28-4.22h0a4.22,4.22,0,0,1,4.27,4.17v0Z"/><path class="cls-5" d="M32.77,640.43a4.24,4.24,0,1,1-4.26-4.22h0a4.22,4.22,0,0,1,4.25,4.19Z"/><path class="cls-5" d="M50.62,640.43a4.24,4.24,0,1,1-4.26-4.22h0a4.22,4.22,0,0,1,4.26,4.18v0Z"/><path class="cls-5" d="M68.54,640.43a4.25,4.25,0,1,1-4.25-4.25h0a4.25,4.25,0,0,1,4.25,4.25Z"/><path class="cls-5" d="M86.4,640.43a4.25,4.25,0,1,1-4.25-4.25h0a4.24,4.24,0,0,1,4.24,4.24Z"/><polygon class="cls-5" points="1190.38 54.16 1200.78 72.17 1211.16 54.16 1205.62 54.16 1205.62 37.23 1195.91 37.23 1195.91 54.16 1190.38 54.16"/><polygon class="cls-5" points="1172.53 35.95 1184.47 56.65 1196.43 35.95 1190.06 35.95 1190.06 16.45 1178.89 16.45 1178.89 35.95 1172.53 35.95"/><path class="cls-5" d="M1241.72,404h-36.5a14.72,14.72,0,0,1-14.68-14.69V352.77a14.73,14.73,0,0,1,14.69-14.69h36.5a14.71,14.71,0,0,1,14.67,14.69v36.5A14.71,14.71,0,0,1,1241.72,404Zm-36.5-63.21a12,12,0,0,0-12,12v36.5a12,12,0,0,0,12,12h36.5a12,12,0,0,0,12-12V352.77a12,12,0,0,0-12-12Z"/><path class="cls-5" d="M1232.09,380.52l-8,.47,2.08-5.93h.27a.73.73,0,0,0,.73-.73v-2.81a7,7,0,0,0,3.27-5.87v-6.83a.9.9,0,0,0-.89-.91H1228v-9.72a.53.53,0,0,0-.5-.56h-2.42a.56.56,0,0,0-.55.56V358h-3.65v-9.72a.55.55,0,0,0-.54-.56H1218a.56.56,0,0,0-.55.56V358h-1.54a.9.9,0,0,0-.91.88h0v6.85a7,7,0,0,0,3.83,6.19v2.49a.72.72,0,0,0,.7.73h.47l-.79,9,8.22-.77-4,11.08Zm-5.86-31.77a.94.94,0,0,1,.84,1,.86.86,0,1,1-1.7-.28A.87.87,0,0,1,1226.23,348.75Zm-7.15,1.89a1,1,0,0,1-.9-1,.94.94,0,0,1,1-.9h0a1,1,0,0,1,.91.95h0a1,1,0,0,1-1,.95Z"/><path class="cls-5" d="M433.38,125.06H376.32a30.44,30.44,0,0,1-30.38-30.39v-57A30.42,30.42,0,0,1,376.32,7.25h57.06a30.42,30.42,0,0,1,30.38,30.38v57a30.42,30.42,0,0,1-30.37,30.44ZM376.32,12.78a24.88,24.88,0,0,0-24.85,24.85v57a24.88,24.88,0,0,0,24.85,24.86h57.06a24.88,24.88,0,0,0,24.85-24.86v-57a24.88,24.88,0,0,0-24.85-24.85Z"/><path class="cls-5" d="M401.44,31.77A19.7,19.7,0,0,0,386.7,61.06a19.6,19.6,0,0,0,2.88,5c2.28,2.9,3.14,7.83,3.34,9.3a3.39,3.39,0,0,1,0,.78V79a5.55,5.55,0,0,0,4.44,5.23,32.88,32.88,0,0,0,6.4.81,30.35,30.35,0,0,0,6-.78,5.53,5.53,0,0,0,4.13-3.77,4.89,4.89,0,0,0,.25-1.52v-2.8a4,4,0,0,1,0-.85c.22-1.51,1.13-6.38,3.4-9.26a19.57,19.57,0,0,0,3-5.18,19.52,19.52,0,0,0-19.31-29.12Z"/><rect class="cls-5" x="394.31" y="87.03" width="19.39" height="3.87" rx="1.91" ry="1.91"/><rect class="cls-5" x="394.31" y="121.12" width="19.39" height="3.87" rx="1.91" ry="1.91"/><rect class="cls-5" x="397" y="97.83" width="14.06" height="3.62" rx="1.77" ry="1.77"/><path class="cls-5" d="M1118.14,468.18a3.75,3.75,0,1,1-3.75-3.75h0a3.73,3.73,0,0,1,3.74,3.7v.05Z"/><path class="cls-5" d="M1164,448.18a3.75,3.75,0,1,1-3.75-3.75h0a3.73,3.73,0,0,1,3.75,3.73Z"/><path class="cls-5" d="M1179.75,448.18a3.75,3.75,0,1,1-3.75-3.75h0a3.73,3.73,0,0,1,3.75,3.73Z"/><path class="cls-5" d="M1195.54,448.18a3.75,3.75,0,1,1-3.75-3.75h0a3.73,3.73,0,0,1,3.75,3.73Z"/><path class="cls-5" d="M1211.36,448.18a3.75,3.75,0,1,1-3.75-3.75h0a3.74,3.74,0,0,1,3.74,3.72Z"/><path class="cls-5" d="M1227.15,448.18a3.75,3.75,0,1,1-3.75-3.75h0a3.73,3.73,0,0,1,3.74,3.74Z"/><path class="cls-5" d="M1243,448.18a3.75,3.75,0,1,1-3.75-3.75h0a3.73,3.73,0,0,1,3.75,3.73Z"/><path class="cls-5" d="M1258.76,448.18a3.75,3.75,0,1,1-3.75-3.75h0a3.73,3.73,0,0,1,3.75,3.73Z"/><path class="cls-5" d="M970.42,63.45a12.27,12.27,0,0,1-13.11,2.1L946.05,76h-40a9.07,9.07,0,0,1-11.72,3.67A7.83,7.83,0,0,1,890,69.49l0-.07c.09-.21.18-.42.29-.63A9.1,9.1,0,0,1,902,65.15a8.55,8.55,0,0,1,4,3.68h36.78l9-8.33c-2.73-5.33-.28-11.71,5.48-14.23S970,46,972.73,51.34a10.12,10.12,0,0,1-2.27,12.14Zm-1.92-13.3a9.35,9.35,0,0,0-12.49,0,7.79,7.79,0,0,0-.55,11,7.14,7.14,0,0,0,.55.55,8.4,8.4,0,0,0,3.39,1.94,9,9,0,0,0,11.22-5A7.75,7.75,0,0,0,968.5,50.15Z"/><path class="cls-5" d="M943.27,40.15a12.24,12.24,0,0,1-13.12,2.1l-11.26,10.4h-40a9.07,9.07,0,0,1-11.72,3.67,7.83,7.83,0,0,1-4.29-10.21h0c.09-.21.18-.42.29-.63a9.08,9.08,0,0,1,11.72-3.67,8.48,8.48,0,0,1,4,3.67h36.74l9-8.33c-2.74-5.33-.29-11.7,5.47-14.23s12.66-.27,15.39,5.06a10.11,10.11,0,0,1-2.26,12.17Zm-1.92-13.3a9.35,9.35,0,0,0-12.49,0,7.77,7.77,0,0,0-2.1,8.42,8.34,8.34,0,0,0,5.49,5.07,9,9,0,0,0,11.22-5.05,7.76,7.76,0,0,0-2.12-8.45Z"/><polygon class="cls-5" points="1225.23 618.83 1235.99 637.46 1246.74 618.83 1241.02 618.83 1241.02 601.28 1230.96 601.28 1230.96 618.83 1225.23 618.83"/><polygon class="cls-5" points="1206.73 599.95 1219.13 621.39 1231.49 599.95 1224.89 599.95 1224.89 579.77 1213.35 579.77 1213.35 599.95 1206.73 599.95"/><rect class="cls-10" x="445.41" y="755.84" width="2.36" height="4.73"/><path class="cls-10" d="M509.64,760.55h-.48v-4.71h.48a7.41,7.41,0,0,0,3.07-.7l2.06,4.26A11.83,11.83,0,0,1,509.64,760.55Zm-5.2,0h-4.72v-4.71h4.75Zm-9.45,0h-4.72v-4.71H495Zm-9.44,0h-4.72v-4.71h4.71Zm-9.44,0h-4.73v-4.71h4.73Zm-9.45,0h-4.72v-4.71h4.72Zm-9.44,0h-4.75v-4.71h4.72Zm62-4.91-3.84-2.77a7.13,7.13,0,0,0,1.28-3.25l4.69.59a11.9,11.9,0,0,1-2.11,5.43Zm2.25-10.44h-4.72v-4.73h4.72Zm0-9.46h-4.72V731h4.72Zm0-9.44h-4.72v-4.71h4.72Zm0-9.44h-4.72v-3.7a9.07,9.07,0,0,1,.07-1.28l4.7.51a5,5,0,0,0,0,.77Zm1.27-7.75-3.88-2.7a12.06,12.06,0,0,1,4.42-3.82l2.11,4.23a7.35,7.35,0,0,0-2.66,2.29Zm67.54-3h-4.74v-4.78h4.72Zm-9.44,0h-4.72v-4.78h4.72Zm-9.45,0h-4.72v-4.78h4.72Zm-9.44,0h-4.72v-4.78H562Zm-9.44,0h-4.74v-4.78h4.7Zm-9.45,0h-4.72v-4.78h4.72Zm-9.44,0H528.9v-4.78h4.72Z"/><rect class="cls-10" x="595.05" y="701.35" width="2.36" height="4.73"/><path class="cls-11" d="M621.94,747.65h-14.4a11.85,11.85,0,0,1-11.81-11.81V639h4.74v96.79a7.1,7.1,0,0,0,7.07,7.12h14.4Z"/><rect class="cls-12" x="95.7" y="638.06" width="4.73" height="2.36"/><path class="cls-12" d="M107.47,731.33a11.62,11.62,0,0,1-3.46-.53l1.4-4.51a7.33,7.33,0,0,0,2.08.31h2v4.72h-2Zm193.69,0h-4.79v-4.72h4.79Zm-9.59,0h-4.79v-4.72h4.76Zm-9.57,0h-4.8v-4.72H282Zm-9.52,0h-4.79v-4.72h4.79Zm-9.58,0h-4.79v-4.72h4.79Zm-9.59,0h-4.83v-4.72h4.79Zm-9.58,0h-4.79v-4.72h4.79Zm-9.59,0h-4.8v-4.72h4.79Zm-9.66,0h-4.79v-4.72h4.79Zm-9.59,0H210.1v-4.72h4.79Zm-9.58,0h-4.77v-4.72h4.79Zm-9.59,0h-4.79v-4.72h4.79Zm-9.58,0h-4.76v-4.72h4.79Zm-9.58,0h-4.8v-4.72h4.78Zm-9.59,0h-4.79v-4.72H167Zm-9.58,0h-4.85v-4.72h4.8Zm-9.59,0H143v-4.72h4.79Zm-9.59,0h-4.73v-4.72h4.79Zm-9.58,0h-4.79v-4.72h4.79Zm-9.59,0h-4.76v-4.72h4.79ZM99,727.7a11.82,11.82,0,0,1-2.9-5.17l4.57-1.2a7.15,7.15,0,0,0,1.74,3.09Zm1.51-10.6H95.74v-4.78h4.73Zm0-9.58H95.74v-4.79h4.73Zm0-9.59H95.74v-4.78h4.73Zm0-9.58H95.74v-4.79h4.73Zm0-9.59H95.74V674h4.73Zm0-9.58H95.74v-4.79h4.73Zm0-9.59H95.74V654.8h4.73Zm0-9.58H95.74v-4.79h4.73Z"/><rect class="cls-12" x="306" y="726.55" width="2.36" height="4.73"/><rect class="cls-10" x="183.13" y="151.53" width="2.36" height="4.73"/><path class="cls-10" d="M151.67,349.8h-4.73v-4.71h4.73Zm0-9.4h-4.73v-4.71h4.73Zm0-9.41h-4.73v-4.66h4.73Zm0-9.4h-4.73v-4.7h4.73Zm0-9.41h-4.73v-4.7h4.73Zm0-9.4h-4.73v-4.7h4.73Zm0-9.4h-4.73v-4.7h4.73Zm0-9.4h-4.73v-4.71h4.73Zm0-9.41h-4.73v-4.7h4.73Zm0-9.4h-4.73v-4.7h4.73Zm0-9.41h-4.73v-4.7h4.73Zm0-9.4h-4.73v-4.7h4.73Zm0-9.4h-4.73v-4.7h4.73Zm0-9.41h-4.73v-4.7h4.73Zm0-9.4h-4.73v-4.7h4.73Zm0-9.4h-4.73v-4.7h4.73Zm0-9.41h-4.73v-4.7h4.73Zm0-9.4h-4.73v-4.7h4.73Zm0-9.4h-4.73v-4.71h4.73Zm0-9.41h-4.73v-4.7h4.73Zm.1-9-4.66-.79a11.82,11.82,0,0,1,2.37-5.32l3.71,2.93a7.22,7.22,0,0,0-1.42,3.18Zm4.2-5.3-1.87-4.35a11.4,11.4,0,0,1,4.67-1h.86v4.72h-.86a6.8,6.8,0,0,0-2.77.63Zm22.47-.58h-4.7v-4.72h4.74Zm-9.42,0h-4.69v-4.72H169Z"/><rect class="cls-10" x="146.94" y="354.52" width="4.73" height="2.36"/><path class="cls-10" d="M142.2,356.53a7.11,7.11,0,1,0,7.12-7.1h0a7.1,7.1,0,0,0-7.1,7.1h0Z"/><path class="cls-13" d="M1180.28,325h-53.43v-4.72h53.43a7.11,7.11,0,0,0,7.09-7.09v-62.7h4.72v62.68A11.82,11.82,0,0,1,1180.28,325Z"/><path class="cls-10" d="M908.65,321.37h-2.79l.11-4.72h4.57l.1,4.74Zm6.79-.2-.29-4.71c1.54-.1,3-.22,4.57-.38l.49,4.7c-1.59.17-3.18.3-4.74.39Zm-14.36,0c-1.61-.12-3.19-.26-4.78-.43l.53-4.7c1.51.17,3,.3,4.57.41Zm23.88-.93-.68-4.68c1.52-.22,3-.48,4.52-.76l.89,4.64c-1.56.25-3.14.51-4.73.75Zm-33.41-.12q-2.37-.37-4.71-.84l.93-4.63c1.49.3,3,.56,4.52.8Zm42.81-1.69-1.09-4.6c1.5-.35,3-.74,4.44-1.15l1.29,4.55c-1.53.38-3.08.78-4.64,1.14Zm-52.2-.18c-1.56-.39-3.09-.8-4.63-1.24l1.32-4.54c1.47.42,2.94.82,4.43,1.19Zm61.38-2.44-1.47-4.48c1.45-.49,2.89-1,4.32-1.54l1.68,4.42c-1.49.52-3,1.05-4.53,1.55Zm-70.62-.25c-1.51-.51-3-1.05-4.52-1.64l1.72-4.4c1.42.54,2.86,1.07,4.32,1.57Zm79.62-3.14-1.87-4.34c1.4-.6,2.79-1.24,4.16-1.9l2,4.26q-2.08,1-4.29,1.89ZM864,312.09l-4.35-2,2.09-4.24c1.38.68,2.76,1.32,4.16,1.94Zm97.12-3.82-2.23-4.18c1.33-.72,2.67-1.47,4-2.25l2.42,4.06c-1.39.77-2.78,1.55-4.19,2.31Zm-105.73-.43c-1.4-.76-2.78-1.57-4.15-2.39l2.45-4c1.3.79,2.63,1.56,4,2.29Zm114-4.47-2.59-3.95q1.92-1.26,3.78-2.59l2.76,3.84c-1.34.88-2.65,1.78-4,2.65Zm-122.16-.5q-2-1.32-3.93-2.73l2.78-3.83c1.24.9,2.49,1.78,3.77,2.64Zm130-5.07-2.92-3.72c1.19-.94,2.38-1.91,3.55-2.91l3.07,3.59c-1.3,1-2.54,2-3.79,3Zm-137.77-.63c-1.25-1-2.47-2-3.68-3.07l3.1-3.56c1.16,1,2.33,2,3.54,2.94Zm145-5.65-3.22-3.46c1.12-1,2.21-2.1,3.28-3.2l3.37,3.32c-1.16,1.14-2.32,2.26-3.49,3.34Zm-152.18-.64c-1.15-1.1-2.29-2.22-3.4-3.37l3.39-3.29c1.07,1.1,2.15,2.18,3.26,3.23Zm158.9-6.19-3.5-3.17c1-1.13,2-2.28,3-3.47l3.64,3c-1.06,1.23-2.13,2.45-3.2,3.64ZM825.64,284c-1-1.2-2.1-2.41-3.1-3.65l3.67-3c1,1.18,2,2.35,3,3.49Zm171.61-6.68-3.77-2.86c.92-1.2,1.82-2.44,2.69-3.7l3.9,2.67c-.93,1.31-1.87,2.6-2.84,3.9Zm-177.71-.73c-1-1.27-1.87-2.58-2.77-3.9l3.9-2.65c.86,1.26,1.75,2.51,2.66,3.73Zm183.17-7.15-4-2.52c.81-1.29,1.59-2.6,2.36-3.93l4.11,2.34c-.8,1.39-1.62,2.75-2.47,4.1Zm-188.55-.76c-.83-1.35-1.64-2.73-2.41-4.12l4.11-2.32c.75,1.32,1.54,2.67,2.33,4Zm193.34-7.58-4.22-2.16c.7-1.36,1.38-2.74,2-4.13l4.29,2q-1,2.13-2.1,4.28Zm-198-.77c-.73-1.42-1.41-2.86-2.08-4.32l4.31-1.94c.63,1.39,1.29,2.76,2,4.13Zm202-7.94-4.37-1.79c.57-1.42,1.13-2.85,1.65-4.29l4.45,1.59c-.58,1.52-1.15,3-1.76,4.49Zm-206-.77c-.59-1.48-1.15-3-1.69-4.49l4.47-1.57c.51,1.45,1,2.88,1.6,4.3Zm209.18-8.29-4.52-1.41c.46-1.46.88-2.93,1.27-4.4l4.57,1.2c-.41,1.61-.84,3.11-1.31,4.61Zm-212.36-.77c-.47-1.53-.9-3.06-1.29-4.61l4.57-1.18c.38,1.48.8,3,1.24,4.42Zm214.8-8.49-4.62-1c.33-1.49.62-3,.88-4.5l4.67.81c-.27,1.58-.61,3.15-.93,4.71ZM800,233.33c-.33-1.56-.62-3.13-.89-4.71l4.67-.77q.39,2.27.84,4.5Zm218.82-8.65-4.68-.61c.18-1.51.35-3,.49-4.56l4.69.41c-.13,1.56-.3,3.15-.5,4.73Zm-220.39-.8c-.19-1.58-.34-3.17-.46-4.76l4.71-.38c.12,1.53.27,3.06.46,4.57Zm221.2-8.74-4.72-.21c.07-1.52.1-3.05.1-4.58h4.72c0,1.57,0,3.17-.1,4.76Zm-221.94-.81c0-1.32-.07-2.65-.07-4v-.81h4.73v.81c0,1.28,0,2.55.07,3.81Zm217.27-7c0-1.54-.12-3.07-.22-4.58l4.75-.42c.11,1.59.19,3.18.24,4.78ZM802.47,205l-4.71-.25c.08-1.6.19-3.19.34-4.77l4.7.43C802.64,202,802.54,203.42,802.47,205Zm211.85-6.84c-.19-1.52-.4-3-.63-4.55l4.68-.73c.24,1.57.46,3.15.64,4.74Zm-211-2.29-4.68-.64c.21-1.59.46-3.17.75-4.73l4.65.84c-.27,1.5-.52,3-.73,4.53Zm209.57-6.77c-.31-1.5-.65-3-1-4.47l4.59-1.14c.38,1.54.73,3.1,1,4.67ZM805,186.8l-4.61-1c.36-1.56.74-3.11,1.16-4.65l4.55,1.24c-.4,1.43-.78,2.94-1.11,4.41Zm205.71-6.63c-.43-1.47-.9-2.93-1.39-4.39l4.47-1.52c.51,1.5,1,3,1.45,4.55ZM807.35,178l-4.51-1.43c.49-1.53,1-3,1.57-4.55l4.43,1.64c-.54,1.42-1,2.88-1.5,4.34Zm200.34-6.47c-.56-1.42-1.15-2.83-1.77-4.22l4.33-1.92c.64,1.47,1.26,2.93,1.84,4.42Zm-197.22-2.16-4.36-1.82c.62-1.49,1.28-3,2-4.4l4.29,2c-.67,1.41-1.3,2.85-1.93,4.23Zm193.47-6.2c-.67-1.36-1.39-2.72-2.14-4.06l4.15-2.28c.77,1.39,1.5,2.8,2.21,4.25ZM814.47,161l-4.18-2.2c.74-1.41,1.52-2.82,2.32-4.19L816.7,157A43.39,43.39,0,0,0,814.47,161Zm185.13-5.9c-.8-1.31-1.62-2.59-2.46-3.86l3.93-2.63c.88,1.33,1.73,2.66,2.57,4Zm-180.52-2-4-2.55c.86-1.33,1.75-2.67,2.67-4l3.86,2.72q-1.33,1.86-2.58,3.78Zm175.39-5.61c-.9-1.24-1.84-2.45-2.8-3.64l3.69-3c1,1.24,2,2.51,2.91,3.8Zm-170.14-1.94-3.79-2.89c1-1.27,2-2.5,3-3.74l3.62,3c-1,1.22-1.95,2.39-2.88,3.62Zm164.4-5.23c-1-1.15-2-2.27-3.1-3.38l3.42-3.26c1.1,1.14,2.17,2.32,3.23,3.53Zm-158.51-1.8-3.48-3.2c1.08-1.18,2.18-2.34,3.31-3.46l3.34,3.33c-1.09,1.13-2.13,2.21-3.18,3.33ZM982.4,133.7c-1.1-1.06-2.23-2.09-3.37-3.11l3.12-3.54c1.2,1.06,2.37,2.14,3.53,3.25ZM836.7,132l-3.2-3.47c1.17-1.08,2.36-2.14,3.59-3.17l3,3.62c-1.13,1-2.28,2-3.4,3Zm138.78-4.41c-1.19-1-2.4-1.89-3.63-2.81l2.81-3.8c1.29,1,2.55,1.93,3.8,2.94Zm-131.81-1.5-2.89-3.74c1.26-1,2.55-1.93,3.85-2.85l2.71,3.87c-1.21.92-2.43,1.79-3.64,2.72Zm124.43-4c-1.27-.86-2.56-1.69-3.85-2.49l2.47-4c1.36.84,2.71,1.71,4,2.6Zm-116.94-1.33-2.57-4c1.34-.87,2.71-1.7,4.09-2.51l2.38,4.09c-1.28.84-2.58,1.64-3.86,2.47Zm109.17-3.47c-1.35-.75-2.7-1.46-4.07-2.15l2.12-4.22c1.42.72,2.83,1.46,4.23,2.24ZM859.1,116.18,856.89,112q2.1-1.12,4.28-2.14l2,4.27c-1.37.67-2.72,1.37-4.07,2.08Zm93-3c-1.4-.63-2.81-1.23-4.23-1.78l1.74-4.39c1.49.58,3,1.22,4.42,1.86Zm-84.73-.86L865.54,108c1.47-.62,3-1.22,4.46-1.76l1.64,4.43c-1.45.53-2.88,1.08-4.28,1.71Zm76.2-2.45c-1.44-.5-2.9-1-4.36-1.41l1.33-4.51c1.55.46,3.06,1,4.56,1.47ZM876,109.13l-1.47-4.52q2.28-.72,4.59-1.38l1.26,4.56c-1.46.41-2.93.84-4.38,1.31Zm58.84-1.89c-1.49-.37-3-.72-4.48-1l1-4.62c1.57.33,3.12.68,4.67,1.08Zm-50-.54-1.06-4.61c1.55-.36,3.11-.67,4.69-1l.86,4.65c-1.5.28-3,.58-4.48.93Zm41-1.32c-1.5-.24-3-.45-4.54-.63l.56-4.7c1.59.19,3.17.41,4.74.67Zm-32-.34-.65-4.67c1.57-.22,3.16-.42,4.76-.56l.44,4.7c-1.5.11-3,.3-4.53.5Zm22.89-.73c-1.52-.11-3-.19-4.58-.25l.14-4.72c1.61,0,3.2.14,4.79.25ZM903,104.17l-.25-4.72c1.59-.09,3.18-.14,4.79-.15V104c-1.49,0-3,0-4.52.12Z"/><circle class="cls-14" cx="917.22" cy="209.09" r="53.18"/><path class="cls-2" d="M238.93,653.6V276.48h95.89V653.6Z"/><path class="cls-2" d="M793.29,464.49C793.29,574.4,706,657.9,589.1,657.9c-116.35,0-203.64-83-203.64-193.41,0-109.9,87.28-191.25,203.64-191.25C706,273.24,793.29,355.14,793.29,464.49ZM483.47,465c0,63.57,49,112.59,106.67,112.59,58.18,0,104.52-49,104.52-112.59s-46.3-111.51-104.47-111.51S483.47,401.46,483.47,465Z"/><path class="cls-2" d="M1006.09,353.52V653.6h-95.9V353.52H797.6V276h322.17v77.58Z"/><path class="cls-13" d="M248.38,653.6h-4.73V276.48a2.36,2.36,0,0,1,2.36-2.36h56.78v4.72H248.38Z"/><rect class="cls-13" x="339.55" y="312.46" width="4.73" height="248.24"/><path class="cls-13" d="M341.91,656H246v-4.73h93.53v-26h4.72v28.23A2.36,2.36,0,0,1,342,656h-.09Z"/><path class="cls-13" d="M596.89,580l-7.5-.41-1.28-.06a17.94,17.94,0,0,1-2.64-.19l-3.59-.58c-8.77-1.1-18.12-3.91-28.53-8.57L546.8,567c-1.5-.79-2.84-1.67-4.16-2.52-.69-.45-1.38-.89-2.09-1.32l-3-1.9a24.12,24.12,0,0,1-2-1.49c-.29-.24-.59-.49-.9-.71l-5.54-4.3a115.44,115.44,0,0,1-30.63-41A121.08,121.08,0,0,1,489,478.83a26,26,0,0,1-.38-4.22,11.48,11.48,0,0,0-.12-1.66l-.38-7.83,4.72-.22.37,7.75c0,.5.07,1.09.09,1.72a24.88,24.88,0,0,0,.32,3.66,117,117,0,0,0,9.1,33.69A110.67,110.67,0,0,0,531.91,551l5.42,4.2c.31.22.65.51,1,.78a14.08,14.08,0,0,0,1.6,1.18l3,1.9c.7.43,1.42.9,2.15,1.37,1.29.82,2.5,1.6,3.78,2.28l6.41,3.21c9.89,4.42,18.81,7.11,27.18,8.17l3.71.59a14.47,14.47,0,0,0,2.08.17,7.42,7.42,0,0,1,1.41.08l7.27.38c1.36,0,2.89-.11,4.42-.2L604,575l3.6-.19c.59-.07,1.31-.19,2-.31l8.32-1.33,8-2.15c.71-.19,1.41-.37,2.09-.6l3.16-1.22,2.34-.9c1.37-.52,2.72-1,4-1.61a105,105,0,0,0,38.22-30.27,111.19,111.19,0,0,0,16.62-30.47l2.54-7.56,1.18-5.09,4.59,1.07-1.25,5.32-2.61,7.83a115.76,115.76,0,0,1-17.33,31.82A109.77,109.77,0,0,1,639.54,571c-1.45.63-2.87,1.16-4.31,1.71l-2.28.88-3.3,1.29c-.89.28-1.67.5-2.46.71l-8.09,2.18h-.24l-8.42,1.39c-.8.14-1.61.26-2.41.36l-3.78.2-2.62.14C600.08,579.85,598.47,580,596.89,580Z"/><path class="cls-13" d="M696.88,440.37l-1.78-7.51a118.18,118.18,0,0,0-7-18.55,37.61,37.61,0,0,0-2.63-5.18l-.28-.5c-.41-.69-.81-1.41-1.22-2.14-.71-1.28-1.45-2.58-2.25-3.87-.59-.82-1.27-1.79-1.94-2.76a79.19,79.19,0,0,0-6.9-9,97,97,0,0,0-24.52-20.8,102.28,102.28,0,0,0-29.82-11.89c-1.59-.33-3.2-.58-4.79-.81l-2.73-.43-1.31-.2c-.76-.14-1.5-.25-2.25-.33l-6.11-.31c-1.5-.07-3-.17-4.41-.2l-6.38.33a55.13,55.13,0,0,0-8.31.89c-1,.17-2,.32-2.89.45a38.8,38.8,0,0,0-6.21,1.33c-.77.2-1.51.41-2.2.57s-1.62.44-2.38.63a18.48,18.48,0,0,0-2.73.78l-2,.75-1.65-4.43,1.89-.7a22.9,22.9,0,0,1,3.34-1c.71-.18,1.49-.37,2.33-.61s1.43-.36,2.15-.56a43.48,43.48,0,0,1,6.87-1.45c.83-.11,1.76-.27,2.71-.42a57,57,0,0,1,8.93-1l6.46-.34c1.67,0,3.18.12,4.72.21l6.21.32c1,.09,1.8.22,2.65.36l1.28.2c.94.16,1.82.29,2.71.43,1.68.25,3.38.51,5.08.86A107.2,107.2,0,0,1,650.75,366a101.21,101.21,0,0,1,25.64,21.73,82.09,82.09,0,0,1,7.27,9.45c.66,1,1.32,1.9,2,2.82.93,1.47,1.7,2.84,2.45,4.19l1.18,2.09.3.51a45.08,45.08,0,0,1,2.88,5.62,126.7,126.7,0,0,1,7.19,19.23l1.82,7.71Z"/><path class="cls-13" d="M493,465.15l-4.72-.2.42-9.08a38.24,38.24,0,0,1,.49-5.24c.14-.91.29-1.93.43-3a82,82,0,0,1,2.19-11.41l1.1-4.49c.11-.46.22-.92.35-1.38l3.5-10A121.87,121.87,0,0,1,512.47,393c1.73-2.25,3.44-4.15,4.82-5.68.71-.78,1.34-1.48,1.85-2.1a20,20,0,0,1,2.25-2.35l.65-.61,3.23,3.45-.74.69a18.38,18.38,0,0,0-1.78,1.86c-.54.66-1.21,1.4-2,2.22-1.39,1.55-3,3.3-4.6,5.41A116.91,116.91,0,0,0,501.09,422l-3.41,9.73c-.07.26-.16.66-.26,1.05l-1.13,4.61a77.31,77.31,0,0,0-2.07,10.88c-.15,1.07-.29,2.11-.45,3.11a34.5,34.5,0,0,0-.43,4.65Z"/><path class="cls-13" d="M596.17,660.27a252.7,252.7,0,0,1-26.94-1.57,232.27,232.27,0,0,1-26.07-4.44,219.25,219.25,0,0,1-24.86-7.45,199.58,199.58,0,0,1-43.64-22.1,189.1,189.1,0,0,1-33.47-28.38,192.07,192.07,0,0,1-22.56-29.47,197.12,197.12,0,0,1-13.16-25.46c-.55-1.41-1-2.66-1.54-3.85-.88-2.16-1.71-4.21-2.34-6.14l-2.49-7.31-1.8-6.32,4.55-1.29,1.76,6.21,2.46,7.21c.59,1.8,1.4,3.77,2.24,5.86.49,1.22,1,2.49,1.52,3.81a193.06,193.06,0,0,0,12.81,24.74,187.12,187.12,0,0,0,22,28.75,182.66,182.66,0,0,0,32.64,27.7,193.74,193.74,0,0,0,42.66,21.6,211.89,211.89,0,0,0,24.29,7.28A234,234,0,0,0,622.66,654c34.78-3.69,69.1-16.46,96.67-36a188.3,188.3,0,0,0,35.21-32.28,183.58,183.58,0,0,0,42-96.87c.49-3.39.72-6.46.91-9.16l.47-8.8.16-6.45,4.73.12L802.39,476l-.3,4c-.2,2.79-.42,5.94-.93,9.41a189.2,189.2,0,0,1-79.08,132.45c-28.24,20-63.35,33-98.88,36.81A251.65,251.65,0,0,1,596.17,660.27Z"/><path class="cls-13" d="M400.2,419.33l-4.6-1.07.83-3.61c.27-.91.53-1.82.82-2.85.57-2,1.27-4.47,2.15-7.32A188.37,188.37,0,0,1,414.47,370,185.82,185.82,0,0,1,447,328a193.36,193.36,0,0,1,23.14-19.12,213.51,213.51,0,0,1,26.64-15.75,222.57,222.57,0,0,1,28.68-11.5,230.89,230.89,0,0,1,29.07-7.15,248.94,248.94,0,0,1,53-3.33,227.05,227.05,0,0,1,37.28,4.7c3.45.65,6.38,1.4,8.53,2l5.28,1.33-1.17,4.53-5.29-1.33c-2.2-.57-4.94-1.27-8.3-1.9a223.59,223.59,0,0,0-36.55-4.61,244.79,244.79,0,0,0-51.86,3.26,222.57,222.57,0,0,0-28.46,7,216.48,216.48,0,0,0-28.1,11.27,203.51,203.51,0,0,0-26,15.39,182.33,182.33,0,0,0-22.57,18.65,180.35,180.35,0,0,0-31.7,40.9A184.36,184.36,0,0,0,404,406c-.85,2.78-1.54,5.2-2.1,7.19-.3,1-.55,2-.8,2.76Z"/><path class="cls-13" d="M798,464.55l-.17-7.06c0-2.17-.19-4.73-.45-7.95l-.42-5.22-.63-5.09a182.73,182.73,0,0,0-15.26-53.35,177.65,177.65,0,0,0-30.72-46.21l-1.4-1.54c-.79-.85-1.54-1.69-2.3-2.46l-3.52-3.47c-2.26-2.3-4.41-4.19-5.84-5.44L732,322.21l3-3.68,1.45,1.17,4,3.53c1.46,1.29,3.7,3.25,6,5.64l3.52,3.47c.83.84,1.63,1.72,2.45,2.62l1.38,1.5A183,183,0,0,1,785.4,384a187.37,187.37,0,0,1,15.65,54.75l.68,5.47.4,5.07c.27,3.31.46,6,.46,8.27l.18,7Z"/><path class="cls-13" d="M1013.19,656H917.28a2.36,2.36,0,0,1-2.36-2.36v-246h4.73V651.23h91.17V353.52h4.72V653.6a2.36,2.36,0,0,1-2.32,2.4Z"/><path class="cls-13" d="M860.27,355.87H804.7a2.36,2.36,0,0,1-2.37-2.35h0V276a2.36,2.36,0,0,1,2.35-2.37h234.11v4.75H807.05V351.2h53.22Z"/><path class="cls-13" d="M1126.86,355.87H1013.19v-4.72h111.29v-67.6h4.73v70A2.37,2.37,0,0,1,1126.86,355.87Z"/><rect class="cls-13" x="170.02" y="651.23" width="218.12" height="4.73"/><rect class="cls-13" x="811.88" y="651.23" width="218.12" height="4.73"/><rect class="cls-13" x="1050.88" y="651.23" width="71.61" height="4.73"/><rect class="cls-10" x="293.62" y="592.36" width="2.35" height="4.73"/><path class="cls-10" d="M360.54,597.1h-4.6v-4.77h4.6Zm-9.22,0h-4.6v-4.77h4.6Zm-9.22,0h-4.62v-4.77h4.62Zm-9.23,0h-4.61v-4.77h4.61Zm-9.22,0H319v-4.77h4.61Zm-9.22,0h-4.61v-4.77h4.66Zm-9.23,0h-4.66v-4.77h4.61Zm60,0-.09-4.73a7.07,7.07,0,0,0,3.3-.88l2.3,4.12a11.83,11.83,0,0,1-5.51,1.49Zm9.68-5.38-4-2.58a7.05,7.05,0,0,0,1.11-3.23l4.71.4a11.74,11.74,0,0,1-1.82,5.41Zm1.9-10.21h-4.72V577h4.72Zm0-9.23h-4.72v-4.61h4.72Zm0-9.22h-4.72v-4.61h4.72Zm0-9.22h-4.72v-4.61h4.72Zm0-9.23h-4.72V540h4.72Zm0-9.22h-4.72v-4.61h4.72Zm0-9.22h-4.72v-4.61h4.72Zm0-9.22h-4.72v-4.62h4.72Zm0-9.23h-4.72v-4.61h4.72Zm0-9.22h-4.72v-4.61h4.72Zm0-9.22h-4.72v-4.62h4.72Zm0-9.23h-4.72v-4.61h4.72Zm.18-8.68-4.61-1a11.94,11.94,0,0,1,2.58-5.1l3.55,3.06a7.07,7.07,0,0,0-1.52,3Zm4.34-5L379.54,462a11.87,11.87,0,0,1,4.29-.8h1.11v4.72h-1.11a6.82,6.82,0,0,0-2.57.44Zm49.79-.48h-4.61v-4.72h4.61Zm-9.22,0h-4.62v-4.72h4.61Zm-9.23,0H408v-4.72h4.61Zm-9.22,0h-4.61v-4.72h4.61Zm-9.22,0h-4.66v-4.72h4.61Z"/><rect class="cls-10" x="435.75" y="461.14" width="2.34" height="4.73"/><path class="cls-10" d="M294,601.84a7.11,7.11,0,1,1,7.11-7.11h0A7.13,7.13,0,0,1,294,601.84Z"/><circle class="cls-10" cx="437.75" cy="463.49" r="7.11"/><path class="cls-13" d="M697.07,333.08h-4.73V250.21a7.11,7.11,0,0,0-7.09-7.07h-308l-82.2,82.19L291.7,322l83.62-83.62H685.25a11.83,11.83,0,0,1,11.82,11.81Z"/><circle class="cls-13" cx="293.63" cy="323.45" r="7.11"/><circle class="cls-13" cx="694.7" cy="332.71" r="7.11"/><rect class="cls-13" x="716.83" y="564.6" width="242.19" height="4.73"/><path class="cls-13" d="M717.19,574.08a7.11,7.11,0,1,1,7.1-7.12h0a7.12,7.12,0,0,1-7.09,7.11Z"/><circle class="cls-13" cx="958.67" cy="566.92" r="7.11"/><path class="cls-2" d="M332,779.85H308.36a2.37,2.37,0,0,1-2.35-2.37v-104a2.35,2.35,0,0,1,2.34-2.36H428.87a2.35,2.35,0,0,1,2.36,2.34V709h-4.76V675.87H310.73v99.24H332Z"/><rect class="cls-2" x="308.36" y="690.04" width="120.51" height="4.73"/><rect class="cls-15" x="315.45" y="680.6" width="4.73" height="4.73"/><rect class="cls-15" x="324.9" y="680.6" width="4.73" height="4.73"/><rect class="cls-15" x="334.35" y="680.6" width="4.73" height="4.73"/><path class="cls-12" d="M365.07,756.22h52v40.9a4,4,0,0,1-4,4h-44a4,4,0,0,1-4-4Z"/><path class="cls-13" d="M407.61,803.47H374.54a11.85,11.85,0,0,1-11.81-11.81V756.22a2.37,2.37,0,0,1,2.36-2.37h52a2.37,2.37,0,0,1,2.36,2.37v35.44A11.84,11.84,0,0,1,407.61,803.47Zm-40.14-44.89v33.08a7.1,7.1,0,0,0,7.07,7.08h33.1a7.1,7.1,0,0,0,7.08-7.09V758.58Z"/><path class="cls-13" d="M391.06,784.56a9.45,9.45,0,1,1,9.46-9.45,9.45,9.45,0,0,1-9.46,9.45Zm0-14.17a4.73,4.73,0,1,0,4.73,4.73h0a4.72,4.72,0,0,0-4.72-4.72Z"/><rect class="cls-13" x="388.7" y="782.21" width="4.73" height="9.45"/><path class="cls-13" d="M412.33,756.22h-4.72v-4.73a16.55,16.55,0,0,0-33.09,0v4.73H369.8v-4.73a21.27,21.27,0,1,1,42.53-1h0v5.72Z"/><rect class="cls-2" x="339.08" y="798.74" width="4.73" height="4.73"/><rect class="cls-2" x="339.08" y="789.29" width="4.73" height="4.73"/><rect class="cls-2" x="339.08" y="779.85" width="4.73" height="4.73"/><path class="cls-2" d="M436,813H332a2.38,2.38,0,0,1-2.36-2.37V709a2.36,2.36,0,0,1,2.35-2.37H445.41a2.35,2.35,0,0,1,2.36,2.34h0v92.16A11.83,11.83,0,0,1,436,813Zm-101.62-4.73H436a7.12,7.12,0,0,0,7.08-7.1V711.33H334.35Z"/><rect class="cls-2" x="332" y="720.77" width="113.42" height="4.73"/><path class="cls-13" d="M919.29,276.48H850.76A11.85,11.85,0,0,1,839,264.67V146.52a11.84,11.84,0,0,1,11.81-11.81h68.53a11.83,11.83,0,0,1,11.81,11.81v44.9h-4.71v-44.9a7.11,7.11,0,0,0-7.1-7.09H850.76a7.11,7.11,0,0,0-7.09,7.09V264.67a7.11,7.11,0,0,0,7.09,7.07h68.53a7.11,7.11,0,0,0,7.1-7.07V231.59h4.71v33.08A11.84,11.84,0,0,1,919.29,276.48Z"/><rect class="cls-13" x="841.32" y="151.25" width="87.43" height="4.73"/><rect class="cls-13" x="841.32" y="255.21" width="87.43" height="4.73"/><path class="cls-13" d="M881.47,191.42H850.76a2.39,2.39,0,0,1-2.36-2.37v-26a2.36,2.36,0,0,1,2.36-2.36h30.71a2.35,2.35,0,0,1,2.36,2.34v26a2.36,2.36,0,0,1-2.35,2.37h0Zm-28.34-4.73h26V165.42h-26Z"/><path class="cls-13" d="M945.28,226.86H881.47a2.36,2.36,0,0,1-2.36-2.36v-26a2.36,2.36,0,0,1,2.36-2.36h63.8a2.35,2.35,0,0,1,2.36,2.34v26A2.37,2.37,0,0,1,945.28,226.86Zm-61.44-4.74h59.08V200.87H883.84Z"/><path class="cls-13" d="M881.47,260H850.76a2.36,2.36,0,0,1-2.36-2.36V234a2.36,2.36,0,0,1,2.36-2.36h30.71a2.34,2.34,0,0,1,2.36,2.32h0v23.65a2.34,2.34,0,0,1-2.32,2.36h0Zm-28.34-4.74h26V236.33h-26Z"/><path class="cls-13" d="M919.29,260H890.94a2.36,2.36,0,0,1-2.36-2.36V234a2.35,2.35,0,0,1,2.34-2.36h28.37a2.35,2.35,0,0,1,2.36,2.34v23.65a2.34,2.34,0,0,1-2.32,2.36h0Zm-26-4.74h23.62V236.33H893.3Z"/><rect class="cls-13" x="867.3" y="207.95" width="4.73" height="4.73"/><rect class="cls-13" x="857.85" y="207.95" width="4.73" height="4.73"/><rect class="cls-13" x="848.4" y="207.95" width="4.73" height="4.73"/><rect class="cls-13" x="888.58" y="163.06" width="33.08" height="4.73"/><rect class="cls-13" x="888.58" y="172.51" width="33.08" height="4.73"/><rect class="cls-13" x="888.58" y="181.95" width="33.08" height="4.73"/><path class="cls-13" d="M960.15,219.08,953.07,212a2.37,2.37,0,0,1,0-3.34l7.09-7.09,3.38,3.43-5.41,5.42,5.41,5.37Z"/><path class="cls-13" d="M976.7,219.08,969.6,212a2.38,2.38,0,0,1,0-3.34l7.1-7.09,3.34,3.34-5.42,5.42L980,215.7Z"/><rect class="cls-13" x="914.57" y="207.95" width="23.63" height="4.73"/><rect class="cls-13" x="902.76" y="207.95" width="7.09" height="4.73"/><rect class="cls-13" x="893.3" y="207.95" width="4.73" height="4.73"/><path class="cls-13" d="M952.38,276.48h-4.74V230.4a3.55,3.55,0,0,0-7.09,0v46.08h-4.72V230.4a8.27,8.27,0,0,1,16.54,0Z"/><path class="cls-13" d="M964.19,276.48h-4.72V261.12a3.55,3.55,0,0,0-7.09,0v15.36h-4.73V261.12a8.27,8.27,0,0,1,16.54,0v15.36Z"/><path class="cls-13" d="M976,276.48h-4.73V261.12a3.55,3.55,0,0,0-7.09,0v15.36h-4.72V261.12a8.27,8.27,0,0,1,16.54,0v15.39Z"/><path class="cls-13" d="M976,276.48h-4.73V261.12a8.27,8.27,0,0,1,8.26-8.28,2.37,2.37,0,1,1,0,4.74,3.53,3.53,0,0,0-3.53,3.53h0Z"/><path class="cls-10" d="M209.12,206.86H185.47a2.36,2.36,0,0,1-2.36-2.36h0v-104a2.36,2.36,0,0,1,2.36-2.36H306a2.34,2.34,0,0,1,2.36,2.32h0V136h-4.72V102.89H187.85v99.23h21.27Z"/><rect class="cls-10" x="185.49" y="117.06" width="120.51" height="4.73"/><rect class="cls-10" x="192.58" y="107.62" width="4.73" height="4.73"/><rect class="cls-10" x="202.03" y="107.62" width="4.73" height="4.73"/><rect class="cls-10" x="211.48" y="107.62" width="4.73" height="4.73"/><path class="cls-2" d="M313.09,240h-104a2.36,2.36,0,0,1-2.36-2.36h0V136a2.36,2.36,0,0,1,2.36-2.36H322.54A2.35,2.35,0,0,1,324.9,136v92.18A11.84,11.84,0,0,1,313.09,240Zm-101.62-4.74H313.09a7.09,7.09,0,0,0,7.09-7.07v-89.8H211.47Z"/><rect class="cls-2" x="209.12" y="147.78" width="113.42" height="4.73"/><path class="cls-12" d="M235.11,195A18.9,18.9,0,1,1,254,176.09v0a2.36,2.36,0,0,1-2.35,2.36h-14.2v14.18A2.36,2.36,0,0,1,235.11,195Zm0-33.08a14.19,14.19,0,0,0-2.36,28.17v-14a2.36,2.36,0,0,1,2.36-2.36h14a14.2,14.2,0,0,0-14-11.73Z"/><path class="cls-10" d="M244.54,202.12a2.36,2.36,0,0,1-2.36-2.36h0V185.59a2.36,2.36,0,0,1,2.36-2.36h14.21a2.35,2.35,0,0,1,2.35,2.35h0A16.54,16.54,0,0,1,244.54,202.12Zm2.4-14.17v9.21a11.84,11.84,0,0,0,9.2-9.21Z"/><rect class="cls-2" x="216.21" y="225.76" width="96.88" height="4.73"/><path class="cls-15" d="M249.29,221a2.38,2.38,0,0,1-1.22-.33l-10.7-6.37-13,6.51-2.11-4.23,14.21-7.14a2.34,2.34,0,0,1,2.28.09l10.07,6L259.34,203a2.35,2.35,0,0,1,3.29-.33l9.45,7.55L282.63,187a2.37,2.37,0,0,1,3.13-1.17h0a2.3,2.3,0,0,1,.43.25l7.41,5.56,15.18-23.84,4,2.53-16.54,26A2.36,2.36,0,0,1,293,197h0l-.18-.12-7.1-5.32L275.07,215a2.33,2.33,0,0,1-3.07,1.18,2.24,2.24,0,0,1-.53-.33l-10-8-10.34,12.4A2.33,2.33,0,0,1,249.29,221Z"/><rect class="cls-2" x="258.75" y="159.59" width="16.54" height="4.73"/><rect class="cls-2" x="280.01" y="159.59" width="4.73" height="4.73"/><rect class="cls-2" x="289.47" y="159.59" width="4.73" height="4.73"/><rect class="cls-2" x="258.75" y="169.05" width="4.73" height="4.73"/><rect class="cls-2" x="268.19" y="169.05" width="4.73" height="4.73"/><rect class="cls-2" x="277.64" y="169.05" width="11.81" height="4.73"/><path class="cls-2" d="M121.69,620.42H72.07A7.1,7.1,0,0,1,65,613.33V544.81a7.11,7.11,0,0,1,7.09-7.09h49.62a7.11,7.11,0,0,1,7.09,7.09v68.52a7.08,7.08,0,0,1-7.09,7.09Zm-49.62-78a2.36,2.36,0,0,0-2.36,2.36v68.54a2.37,2.37,0,0,0,2.36,2.37h49.62a2.37,2.37,0,0,0,2.37-2.37V544.81a2.36,2.36,0,0,0-2.37-2.35h0Z"/><rect class="cls-2" x="67.35" y="549.54" width="59.07" height="4.73"/><rect class="cls-2" x="67.35" y="603.89" width="59.07" height="4.73"/><path class="cls-2" d="M194.94,570.8H126.47v-4.71H195a7.11,7.11,0,0,0,7.09-7.1V490.47a7.11,7.11,0,0,0-7.09-7.1H91a7.12,7.12,0,0,0-7.08,7.1v49.62H79.18V490.47A11.84,11.84,0,0,1,91,478.66H195a11.83,11.83,0,0,1,11.82,11.81V559A11.83,11.83,0,0,1,195,570.81h-.06Z"/><rect class="cls-2" x="164.17" y="568.1" width="4.73" height="14.94" transform="translate(-173.42 82.17) rotate(-18.43)"/><rect class="cls-2" x="126.42" y="584.98" width="11.81" height="4.73"/><rect class="cls-2" x="126.42" y="594.43" width="11.81" height="4.73"/><rect class="cls-2" x="126.42" y="549.54" width="77.98" height="4.73"/><rect class="cls-10" x="111.09" y="511.76" width="40.1" height="4.73" transform="translate(-325.13 243.31) rotate(-45)"/><rect class="cls-10" x="139.44" y="511.76" width="40.1" height="4.73" transform="translate(-316.83 263.36) rotate(-45)"/><rect class="cls-10" x="75.24" y="573.2" width="26.73" height="4.73" transform="translate(-381.03 231.23) rotate(-45)"/><rect class="cls-10" x="89.42" y="577.92" width="26.73" height="4.73" transform="translate(-380.22 242.64) rotate(-45)"/><rect class="cls-10" x="154.2" y="596.81" width="20.05" height="4.73" transform="translate(-375.58 291.62) rotate(-45)"/><rect class="cls-10" x="168.38" y="596.82" width="20.05" height="4.73" transform="translate(-371.43 301.65) rotate(-45)"/><rect class="cls-10" x="192.58" y="540.09" width="4.73" height="4.73"/><rect class="cls-10" x="183.13" y="540.09" width="4.73" height="4.73"/><rect class="cls-10" x="173.68" y="540.09" width="4.73" height="4.73"/><path class="cls-15" d="M199.67,620.42H143a7.11,7.11,0,0,1-7.09-7.09v-26a7.11,7.11,0,0,1,7.09-7.1h56.71a7.11,7.11,0,0,1,7.09,7.1v26a7.08,7.08,0,0,1-7.09,7.09ZM143,585a2.36,2.36,0,0,0-2.36,2.35v26a2.37,2.37,0,0,0,2.36,2.37h56.71A2.36,2.36,0,0,0,202,613.3v-26a2.35,2.35,0,0,0-2.35-2.35h0Z"/><rect class="cls-15" x="145.32" y="582.62" width="4.73" height="35.44"/><rect class="cls-15" x="192.58" y="582.62" width="4.73" height="35.44"/><path class="cls-10" d="M537.54,432.49A16.54,16.54,0,1,1,554.11,416v0h0a16.55,16.55,0,0,1-16.56,16.54h0Zm0-28.35A11.82,11.82,0,1,0,549.39,416h0a11.84,11.84,0,0,0-11.82-11.86Z"/><circle class="cls-15" cx="568.28" cy="460.85" r="14.18"/><path class="cls-10" d="M568.28,477.39a16.54,16.54,0,1,1,16.54-16.55h0A16.57,16.57,0,0,1,568.28,477.39Zm0-28.36a11.82,11.82,0,1,0,11.82,11.83h0A11.83,11.83,0,0,0,568.3,449h0Z"/><circle class="cls-12" cx="591.91" cy="498.66" r="14.18"/><path class="cls-2" d="M591.91,515.2a16.54,16.54,0,1,1,16.56-16.54,16.55,16.55,0,0,1-16.56,16.54Zm0-28.36a11.82,11.82,0,1,0,11.82,11.82,11.82,11.82,0,0,0-11.82-11.82Z"/><circle class="cls-2" cx="537.58" cy="517.55" r="14.18"/><path class="cls-10" d="M537.54,534.1a16.54,16.54,0,1,1,16.54-16.55h0A16.57,16.57,0,0,1,537.54,534.1Zm0-28.35a11.82,11.82,0,1,0,11.81,11.83h0a11.83,11.83,0,0,0-11.81-11.84Z"/><path class="cls-10" d="M632.08,432.49A16.54,16.54,0,1,1,648.63,416v0h0A16.57,16.57,0,0,1,632.08,432.49Zm0-28.35A11.82,11.82,0,1,0,643.9,416h0a11.81,11.81,0,0,0-11.76-11.86Z"/><circle class="cls-10" cx="627.36" cy="460.85" r="14.18"/><path class="cls-2" d="M627.36,477.39a16.54,16.54,0,1,1,16.54-16.55h0A16.57,16.57,0,0,1,627.36,477.39Zm0-28.36a11.82,11.82,0,1,0,11.81,11.83h0A11.84,11.84,0,0,0,627.36,449Z"/><circle class="cls-15" cx="646.26" cy="524.65" r="14.18"/><path class="cls-10" d="M646.26,541.18a16.54,16.54,0,1,1,16.54-16.54h0A16.55,16.55,0,0,1,646.26,541.18Zm0-28.34a11.81,11.81,0,1,0,11.81,11.81h0a11.83,11.83,0,0,0-11.81-11.81Z"/><rect class="cls-10" x="551.75" y="413.59" width="66.16" height="4.73"/><rect class="cls-10" x="575.82" y="437.2" width="51.12" height="4.73" transform="translate(-142.83 407.41) rotate(-33.69)"/><rect class="cls-10" x="533.76" y="486.89" width="35.99" height="4.72" transform="translate(-115.24 803.77) rotate(-66.81)"/><rect class="cls-10" x="589.52" y="483.1" width="4.73" height="80.65" transform="translate(18.49 1067.04) rotate(-84.96)"/><g class="cls-16"><rect class="cls-2" x="532.84" y="446.67" width="4.73" height="4.73"/></g><g class="cls-16"><rect class="cls-2" x="532.84" y="456.12" width="4.73" height="4.73"/></g><g class="cls-16"><rect class="cls-2" x="532.84" y="465.58" width="4.73" height="4.73"/></g><g class="cls-16"><rect class="cls-2" x="620.27" y="486.84" width="4.73" height="4.73"/></g><g class="cls-16"><rect class="cls-2" x="620.27" y="496.29" width="4.73" height="4.73"/></g><g class="cls-16"><rect class="cls-2" x="620.27" y="505.74" width="4.73" height="4.73"/></g><path class="cls-2" d="M1055.83,755c-11.91,0-17.84-5.1-23.59-10-5.33-4.58-10.37-8.89-20.52-8.89s-15.19,4.31-20.52,8.89c-5.74,4.91-11.69,10-23.6,10s-17.84-5.1-23.59-10c-5.33-4.58-10.36-8.89-20.52-8.89S908.31,740.37,903,745c-5.75,4.91-11.69,10-23.59,10s-17.84-5.1-23.59-10c-5.34-4.62-10.34-8.91-20.51-8.91v-4.71c11.9,0,17.84,5.09,23.59,10,5.33,4.57,10.36,8.88,20.51,8.88s15.14-4.26,20.51-8.88c5.74-4.92,11.69-10,23.59-10s17.84,5.09,23.59,10c5.33,4.57,10.37,8.88,20.52,8.88s15.19-4.31,20.52-8.88c5.74-4.92,11.69-10,23.59-10s17.85,5.09,23.59,10c5.33,4.57,10.37,8.88,20.52,8.88s15.19-4.31,20.53-8.88c5.74-4.92,11.69-10,23.59-10v4.72c-10.16,0-15.19,4.31-20.52,8.88C1073.67,749.85,1067.73,755,1055.83,755Z"/><circle class="cls-2" cx="1033.37" cy="130.03" r="14.17" transform="translate(669.4 1105.88) rotate(-76.72)"/><path class="cls-2" d="M1098.12,83.83A14.6,14.6,0,0,0,1084,69.66a14.61,14.61,0,0,0,14.17-14.16,14.62,14.62,0,0,0,14.16,14.16A14.62,14.62,0,0,0,1098.12,83.83Z"/><path class="cls-2" d="M1027.48,83.27a14.58,14.58,0,0,0-14.16-14.16A14.61,14.61,0,0,0,1027.48,55a14.61,14.61,0,0,0,14.17,14.17A14.58,14.58,0,0,0,1027.48,83.27Z"/><circle class="cls-12" cx="16.19" cy="523.59" r="11.43"/><path class="cls-12" d="M41.65,513.41a11.78,11.78,0,0,0-11.43-11.47,11.77,11.77,0,0,0,11.43-11.43,11.8,11.8,0,0,0,11.42,11.43A11.79,11.79,0,0,0,41.65,513.41Z"/><path class="cls-12" d="M11.43,501.94A11.77,11.77,0,0,0,0,490.51a11.79,11.79,0,0,0,11.43-11.44,11.79,11.79,0,0,0,11.43,11.44A11.77,11.77,0,0,0,11.43,501.94Z"/><circle class="cls-2" cx="1174.54" cy="723.42" r="14.17"/><path class="cls-2" d="M1215.1,724.83a14.59,14.59,0,0,0-14.16-14.17,14.61,14.61,0,0,0,14.16-14.16,14.59,14.59,0,0,0,14.17,14.16A14.59,14.59,0,0,0,1215.1,724.83Z"/><path class="cls-2" d="M1177.64,690.66a14.58,14.58,0,0,0-14.17-14.16,14.59,14.59,0,0,0,14.17-14.17,14.63,14.63,0,0,0,14.18,14.17A14.59,14.59,0,0,0,1177.64,690.66Z"/><path class="cls-12" d="M384,185.2a16.94,16.94,0,0,1-2.75-.25l.8-4.66a11.2,11.2,0,0,0,4,0l.83,4.66A17.32,17.32,0,0,1,384,185.2Zm-8-2.14a16.25,16.25,0,0,1-4.29-3.58l3.6-3a11.57,11.57,0,0,0,3,2.53Zm16.12,0-2.4-4.06a11.65,11.65,0,0,0,3-2.55l3.63,3a16.39,16.39,0,0,1-4.27,3.6Zm-23.25-8.37a16.61,16.61,0,0,1-1-5.5h4.69a12,12,0,0,0,.71,3.89Zm30.32-.08L394.73,173a11,11,0,0,0,.68-3.9l4.73-.21v.21a16,16,0,0,1-1,5.48Zm-25.92-9.35-4.46-1.59a16.13,16.13,0,0,1,2.77-4.87l3.64,3a11.3,11.3,0,0,0-2,3.42Zm21.45-.2a12,12,0,0,0-2-3.41l3.59-3.07a16.72,16.72,0,0,1,2.85,4.81Zm-16.48-5.82-2.4-4.08a16.49,16.49,0,0,1,5.25-2l.85,4.65a11.37,11.37,0,0,0-3.73,1.39Zm11.39-.1a11.54,11.54,0,0,0-3.73-1.32l.77-4.66A16.8,16.8,0,0,1,392,155Z"/><path class="cls-10" d="M1147,404.68a2.36,2.36,0,0,1-2.36-2.35c0-8.66-7.89-16.55-16.54-16.55a2.37,2.37,0,0,1,0-4.73c8.65,0,16.54-7.88,16.54-16.54a2.37,2.37,0,0,1,4.73,0c0,8.66,7.88,16.54,16.54,16.54a2.37,2.37,0,0,1,0,4.73c-8.66,0-16.54,7.89-16.54,16.55a2.36,2.36,0,0,1-2.37,2.35Zm-9.47-21.26a22.57,22.57,0,0,1,9.48,9.48,22.6,22.6,0,0,1,9.49-9.48,22.62,22.62,0,0,1-9.49-9.49,22.52,22.52,0,0,1-9.47,9.49Z"/><path class="cls-10" d="M192.29,443.65a16.54,16.54,0,1,1,16.54-16.54,16.55,16.55,0,0,1-16.54,16.54Zm0-28.35a11.82,11.82,0,1,0,11.82,11.82h0a11.82,11.82,0,0,0-11.82-11.78Z"/><g class="cls-16"><path class="cls-10" d="M844.21,537.74a11.28,11.28,0,1,1,11.26-11.3h0A11.27,11.27,0,0,1,844.21,537.74Zm0-17.83a6.56,6.56,0,1,0,6.56,6.56h0A6.56,6.56,0,0,0,844.21,519.91Z"/></g><g class="cls-16"><path class="cls-10" d="M793.83,626.71a10.86,10.86,0,1,1,10.87-10.86,10.86,10.86,0,0,1-10.87,10.86Zm0-17a6.14,6.14,0,1,0,6.14,6.14h0a6.14,6.14,0,0,0-6.14-6.12Z"/></g><g class="cls-17"><path class="cls-2" d="M394,318a12.43,12.43,0,1,1,.06,0Zm0-20.09a7.68,7.68,0,1,0,7.68,7.68h0a7.68,7.68,0,0,0-7.64-7.72h0Z"/></g><g class="cls-16"><path class="cls-2" d="M1065.71,245.8a13,13,0,1,1,13-13h0a13,13,0,0,1-13,13Zm0-21.3a8.29,8.29,0,1,0,8.28,8.3h0a8.32,8.32,0,0,0-8.28-8.31Z"/></g><g class="cls-17"><path class="cls-2" d="M19.53,471.11a10,10,0,1,1,10-10A10,10,0,0,1,19.53,471.11Zm0-16.19a6.19,6.19,0,1,0,6.18,6.2h0a6.2,6.2,0,0,0-6.18-6.18Z"/></g><g class="cls-16"><path class="cls-2" d="M104.63,456.83a7.09,7.09,0,1,1,7.09-7.09h0A7.11,7.11,0,0,1,104.63,456.83Zm0-9.46a2.37,2.37,0,1,0,2.36,2.39h0a2.38,2.38,0,0,0-2.35-2.39Z"/></g><path class="cls-2" d="M964,709.79a11.23,11.23,0,1,1,11.22-11.24h0A11.24,11.24,0,0,1,964,709.79Zm0-17.71a6.5,6.5,0,1,0,6.5,6.5h0a6.5,6.5,0,0,0-6.5-6.5Z"/><circle class="cls-18" cx="828.21" cy="412.81" r="7.09"/><circle class="cls-15" cx="400.52" cy="613.85" r="6.5"/><circle class="cls-19" cx="545.84" cy="752.66" r="5.91"/><path class="cls-15" d="M1047.54,383.09a5.7,5.7,0,1,1-5.7-5.7h0A5.71,5.71,0,0,1,1047.54,383.09Z"/><path class="cls-18" d="M757.25,287.14a5.87,5.87,0,1,1-5.87-5.87h0A5.87,5.87,0,0,1,757.25,287.14Z"/><path class="cls-18" d="M467.94,270a4.17,4.17,0,1,1-4.18-4.17h0a4.18,4.18,0,0,1,4.18,4.16Z"/><path class="cls-18" d="M1053.6,192.62a5.88,5.88,0,1,1-5.88-5.88h0a5.87,5.87,0,0,1,5.87,5.87Z"/><circle class="cls-18" cx="1215.82" cy="293.05" r="5.91"/><path class="cls-18" d="M151.33,403.65a9.07,9.07,0,1,1-9.07-9.07h0a9.06,9.06,0,0,1,9.06,9.06Z"/><circle class="cls-12" cx="139.52" cy="701.97" r="7.19"/><circle class="cls-12" cx="1084.79" cy="405.11" r="5.7"/><circle class="cls-12" cx="868.5" cy="462.02" r="5.91"/><circle class="cls-12" cx="591.91" cy="387.59" r="7.09"/><circle class="cls-12" cx="149.76" cy="441.28" r="7.09"/><circle class="cls-12" cx="203.21" cy="700.68" r="8.27"/><circle class="cls-10" cx="1131.25" cy="755.54" r="2.95"/><path class="cls-10" d="M1134.28,424.24a5.9,5.9,0,1,1-5.9-5.9h0a5.88,5.88,0,0,1,5.89,5.87v0h0Z"/><circle class="cls-10" cx="872.03" cy="615.61" r="3.54"/><path class="cls-10" d="M671.47,460.45a4.32,4.32,0,1,1-4.32-4.33,4.31,4.31,0,0,1,4.32,4.33Z"/><path class="cls-20" d="M676.2,675.72a9.06,9.06,0,1,1-9.06-9.06h0a9,9,0,0,1,9.06,9Z"/><circle class="cls-10" cx="489.08" cy="696.4" r="5.57"/><path class="cls-10" d="M740.25,225.68"/><path class="cls-10" d="M391.07,368.7a7.09,7.09,0,1,1-7.09-7.09h0a7.08,7.08,0,0,1,7.09,7.07Z"/><path class="cls-12" d="M736.69,241h0a13,13,0,0,1-5.16-1l1.79-4.36a9.22,9.22,0,0,0,3.36.66Zm5.19-1-1.83-4.35a9,9,0,0,0,2.87-1.93l3.35,3.34a13.67,13.67,0,0,1-4.4,2.91Zm-14.79-2.89a13.57,13.57,0,0,1-3-4.38l4.36-1.81a8.7,8.7,0,0,0,1.93,2.86Zm22.13-4.46-4.37-1.8a9.18,9.18,0,0,0,.67-3.39l4.71-.13v.13a13.35,13.35,0,0,1-1,5.15Zm-26.16-5.12v-.07a13.2,13.2,0,0,1,1-5.12l4.38,1.78a8.91,8.91,0,0,0-.65,3.34ZM744.81,224a9.18,9.18,0,0,0-2-2.85l3.31-3.38a13.85,13.85,0,0,1,3,4.37Zm-14.47-2.74L727,218a13.57,13.57,0,0,1,4.38-3l1.85,4.35a8.51,8.51,0,0,0-2.85,1.93Zm9.63-2a8.79,8.79,0,0,0-3.32-.64l-.11-4.68h.1a13,13,0,0,1,5.08,1Z"/><rect class="cls-10" x="917.07" y="548.09" width="2.34" height="4.73" transform="translate(-149.36 630.52) rotate(-35.23)"/><path class="cls-10" d="M924.33,549.11l-2.72-3.85,3.77-2.66,2.72,3.86Zm7.53-5.3L929.14,540l3.76-2.66,2.73,3.86Zm7.53-5.3-2.72-3.86,3.76-2.66,2.72,3.87Zm7.53-5.31-2.73-3.86,3.77-2.66,2.72,3.86Zm7.52-5.31L951.72,524l3.76-2.66,2.72,3.86Zm7.53-5.3-2.72-3.87,3.76-2.66,2.72,3.86Zm7.51-5.26-2.73-3.86,3.77-2.66,2.72,3.86ZM977,512l-2.72-3.86,3.76-2.65,2.73,3.85Z"/><path class="cls-10" d="M984.54,506.66l-1.2-1.7-1.57-1.64.23-.22-.19-.27,1.89-1.32,1.51-1.42,1.61,1.71a2.34,2.34,0,0,1-.07,3.32h0a2,2,0,0,1-.29.22Z"/><path class="cls-10" d="M978.61,500l-3.15-3.39,3.44-3.22,3.16,3.38Zm-6.31-6.75-3.15-3.37,3.45-3.23,3.16,3.37Zm-6.3-6.74-3.16-3.37,3.45-3.23,3.15,3.37Zm-6.33-6.74-3.2-3.36,3.45-3.23,3.16,3.38ZM953.36,473l-3.15-3.37,3.45-3.24,3.16,3.38ZM947,466.21l-3.15-3.37,3.45-3.23,3.2,3.34Z"/><path class="cls-10" d="M940.73,459.45l-1.59-1.71a2.38,2.38,0,0,1-.09-3.15l1.52-1.79,2,1.71h0l1.58,1.33L944,456l.15.18-1.52,1.43h0Z"/><path class="cls-10" d="M947.26,452.21l-3.61-3,3.1-3.65,3.6,3.06Zm6.17-7.29-3.6-3.06,3.08-3.65,3.61,3.06Zm6.18-7.3-3.61-3,3.09-3.65,3.6,3Zm6.17-7.3-3.61-3.05,3.09-3.65,3.61,3ZM972,423l-3.65-3,3.12-3.65,3.6,3.06Zm6.17-7.29-3.59-3.06,3.1-3.65,3.61,3.05Z"/><path class="cls-10" d="M984.3,408.43,982.6,407h0l-1.87-1.41.1-.12-.11-.09,1.51-1.79h0l1.34-1.78,1.88,1.41a2.37,2.37,0,0,1,.45,3.32l-.07.09Z"/><path class="cls-10" d="M976.86,402.68,973,399.77l2.84-3.78,3.86,2.91Zm-7.72-5.81L965.27,394l2.85-3.78,3.86,2.91Zm-7.72-5.82-3.86-2.9,2.84-3.78,3.86,2.91Zm-7.72-5.81-3.86-2.9,2.84-3.78,3.86,2.92Zm-7.7-5.81-3.87-2.9,2.84-3.77,3.86,2.91Zm-7.73-5.81-3.86-2.89,2.84-3.78,3.86,2.89Z"/><path class="cls-10" d="M930.47,367.81l-1.87-1.41a2.39,2.39,0,0,1-.93-2.12,2.32,2.32,0,0,1,1.35-1.89l2.11-1,.76,1.57,1.44,1.08-.57.76.4.85-1.63.77Z"/><path class="cls-10" d="M937.47,363.62l-2-4.26,4.23-2,2,4.27Zm8.47-4-2-4.26,4.22-2,2,4.26Zm8.46-4-2-4.26,4.23-2,2,4.26Zm8.46-4-2-4.26,4.24-2,2,4.26Zm8.47-4-2-4.26,4.23-2,2,4.27Zm8.46-4-2-4.26,4.24-2,2,4.26Zm8.47-4-2-4.26,4.23-2,2,4.26Zm8.46-4-2-4.26,4.24-2,2,4.26Zm8.47-4-2-4.26,4.23-2,2,4.27Zm8.46-4-2-4.26,4.24-2,2,4.27Zm8.47-4-2-4.26,4.23-2,2,4.26Zm8.47-4-2-4.26,4.24-2,2,4.26Zm8.46-4-2-4.26,4.23-2,2,4.26Z"/><rect class="cls-10" x="1046.35" y="306.3" width="2.34" height="4.73" transform="translate(-30.99 480.1) rotate(-25.45)"/><polygon class="cls-10" points="1045.9 321.02 1045.42 309.63 1036.88 302.06 1063.87 300.86 1045.9 321.02"/><rect class="cls-2" x="474.69" y="157.23" width="2.36" height="4.73"/><path class="cls-2" d="M734,162h-4.76v-4.72H734Zm-9.53,0h-4.76v-4.72h4.75ZM715,162h-4.8v-4.72H715Zm-9.51,0h-4.76v-4.72h4.78ZM696,162h-4.76v-4.72H696Zm-9.52,0h-4.76v-4.72h4.76Zm-9.51,0h-4.76v-4.72h4.76Zm-9.52,0h-4.76v-4.72h4.76Zm-9.52,0h-4.8v-4.72h4.76Zm-9.52,0h-4.75v-4.72h4.75Zm-9.51,0h-4.76v-4.72h4.76Zm-9.52,0h-4.77v-4.72h4.76Zm-9.52,0H615v-4.72h4.75Zm-9.51,0h-4.74v-4.72h4.76Zm-9.52,0H596v-4.72h4.76Zm-9.52,0h-4.77v-4.72h4.75Zm-9.51,0H577v-4.72h4.76Zm-9.52,0h-4.74v-4.72h4.76Zm-9.52,0H558v-4.72h4.75Zm-9.51,0h-4.71v-4.72h4.76Zm-9.52,0h-4.8v-4.72h4.76Zm-9.52,0h-4.76v-4.72h4.76Zm-9.51,0h-4.76v-4.72h4.76Zm-9.52,0h-4.76v-4.72h4.76Zm-9.52,0h-4.76v-4.72h4.76Zm-9.51,0h-4.76v-4.72h4.76Zm-9.54,0h-4.76v-4.72h4.76Z"/><rect class="cls-2" x="738.76" y="157.23" width="2.36" height="4.73"/><path class="cls-2" d="M475,166.7a7.11,7.11,0,1,1,7.1-7.12h0A7.12,7.12,0,0,1,475,166.7Z"/><path class="cls-2" d="M740.76,166.7a7.11,7.11,0,1,0-7.1-7.12h0A7.13,7.13,0,0,0,740.76,166.7Z"/><rect class="cls-15" x="622.63" y="736.89" width="28.19" height="14.09"/><path class="cls-13" d="M650.82,753.33H622.63a2.35,2.35,0,0,1-2.35-2.35v-14.1a2.34,2.34,0,0,1,2.34-2.34h28.2a2.34,2.34,0,0,1,2.34,2.34h0V751a2.34,2.34,0,0,1-2.31,2.37h0ZM625,748.62h23.5v-9.4H625Z"/><rect class="cls-12" x="676.65" y="699.3" width="28.19" height="14.09"/><path class="cls-13" d="M704.84,715.74H676.65a2.36,2.36,0,0,1-2.35-2.34V699.33a2.35,2.35,0,0,1,2.35-2.35h28.19a2.35,2.35,0,0,1,2.35,2.35v14.09a2.33,2.33,0,0,1-2.34,2.32ZM679,711h23.47v-9.39H679Z"/><rect class="cls-15" x="730.69" y="692.81" width="28.19" height="14.09"/><path class="cls-13" d="M758.88,709.26H730.69a2.35,2.35,0,0,1-2.35-2.35v-14.1a2.36,2.36,0,0,1,2.35-2.34h28.19a2.34,2.34,0,0,1,2.34,2.34h0V707A2.34,2.34,0,0,1,758.88,709.26ZM733,704.55h23.51v-9.39H733Z"/><rect class="cls-10" x="730.69" y="699.3" width="28.19" height="14.09"/><path class="cls-13" d="M758.88,715.74H730.69a2.36,2.36,0,0,1-2.35-2.34V699.33a2.35,2.35,0,0,1,2.35-2.35h28.19a2.36,2.36,0,0,1,2.34,2.35v14.09a2.33,2.33,0,0,1-2.34,2.32ZM733,711h23.51v-9.39H733Z"/><rect class="cls-15" x="730.69" y="722.79" width="28.19" height="14.09"/><path class="cls-13" d="M758.88,739.23H730.69a2.36,2.36,0,0,1-2.35-2.34v-14.1a2.36,2.36,0,0,1,2.35-2.34h28.19a2.34,2.34,0,0,1,2.34,2.34h0v14.1a2.34,2.34,0,0,1-2.34,2.34ZM733,734.54h23.51v-9.4H733Z"/><rect class="cls-15" x="676.65" y="750.98" width="28.19" height="14.09"/><path class="cls-13" d="M704.84,767.42H676.65a2.36,2.36,0,0,1-2.35-2.34V751a2.35,2.35,0,0,1,2.35-2.35h28.19a2.35,2.35,0,0,1,2.35,2.35v14a2.34,2.34,0,0,1-2.3,2.38h0ZM679,762.73h23.47v-9.4H679Z"/><rect class="cls-12" x="730.69" y="750.98" width="28.19" height="14.09"/><path class="cls-13" d="M758.88,767.42H730.69a2.36,2.36,0,0,1-2.35-2.34V751a2.35,2.35,0,0,1,2.35-2.35h28.19a2.36,2.36,0,0,1,2.34,2.35v14a2.34,2.34,0,0,1-2.3,2.38h0ZM733,762.73h23.51v-9.4H733Z"/><rect class="cls-10" x="730.69" y="797.97" width="28.19" height="14.09"/><path class="cls-13" d="M758.88,814.41H730.69a2.35,2.35,0,0,1-2.35-2.35V798a2.35,2.35,0,0,1,2.35-2.35h28.19a2.36,2.36,0,0,1,2.34,2.35v14a2.34,2.34,0,0,1-2.31,2.37h0ZM733,809.71h23.51v-9.39H733Z"/><rect class="cls-15" x="730.69" y="774.48" width="28.19" height="14.09"/><path class="cls-13" d="M758.88,791H730.69a2.35,2.35,0,0,1-2.35-2.35V774.51a2.35,2.35,0,0,1,2.35-2.35h28.19a2.36,2.36,0,0,1,2.34,2.35V788.6a2.36,2.36,0,0,1-2.32,2.4ZM733,786.26h23.51v-9.41H733Z"/><rect class="cls-12" x="676.65" y="786.23" width="28.19" height="14.09"/><path class="cls-13" d="M704.84,802.66H676.65a2.35,2.35,0,0,1-2.35-2.35V786.23a2.35,2.35,0,0,1,2.35-2.35h28.19a2.35,2.35,0,0,1,2.35,2.35v14.1a2.34,2.34,0,0,1-2.35,2.33ZM679,798h23.46v-9.4H679Z"/><path class="cls-13" d="M662.54,746.33H650.82v-4.71h9.39V706.33a2.34,2.34,0,0,1,2.3-2.38h14.13v4.69H664.9V744a2.34,2.34,0,0,1-2.27,2.41h0Z"/><path class="cls-13" d="M676.65,760.39H662.54A2.35,2.35,0,0,1,660.2,758V744h4.7v11.7h11.75Z"/><path class="cls-13" d="M676.65,795.61H662.54a2.34,2.34,0,0,1-2.34-2.34h0V758h4.7v33h11.75Z"/><path class="cls-13" d="M716.54,708.7h-11.7V704h9.39V682.85a2.36,2.36,0,0,1,2.35-2.34h14.1v4.7H718.94v21.12a2.37,2.37,0,0,1-2.33,2.37Z"/><path class="cls-13" d="M730.69,732.2H716.54a2.36,2.36,0,0,1-2.34-2.35V706.33h4.7v21.14h11.75Z"/><rect class="cls-13" x="716.58" y="704.01" width="14.09" height="4.7"/><rect class="cls-13" x="704.84" y="755.68" width="25.84" height="4.7"/><path class="cls-13" d="M718.94,795.61h-14.1V791h11.7v-9.4a2.36,2.36,0,0,1,2.35-2.34h11.75V784h-9.4v9.39A2.33,2.33,0,0,1,718.94,795.61Z"/><path class="cls-13" d="M730.69,807.33H718.94a2.35,2.35,0,0,1-2.39-2.31h0V793.27h4.71v9.4h9.4Z"/><rect class="cls-13" x="634.36" y="720.45" width="4.7" height="4.7"/><rect class="cls-13" x="634.36" y="711.04" width="4.7" height="4.7"/><rect class="cls-13" x="624.97" y="711.04" width="4.7" height="4.7"/><rect class="cls-13" x="643.76" y="711.04" width="4.7" height="4.7"/><rect class="cls-13" x="634.36" y="762.73" width="4.7" height="4.7"/><rect class="cls-13" x="634.36" y="772.12" width="4.7" height="4.7"/><rect class="cls-13" x="643.76" y="772.12" width="4.7" height="4.7"/><rect class="cls-13" x="624.97" y="772.12" width="4.7" height="4.7"/><path class="cls-2" d="M1254.74,185h-30.27a2.35,2.35,0,0,1-2.33-2.33v-56a2.32,2.32,0,0,1,2.3-2.34h30.32a2.3,2.3,0,0,1,2.33,2.27v0h0v55.92a2.34,2.34,0,0,1-2.3,2.35h0Zm-28-4.67h25.63V129h-25.63Z"/><rect class="cls-2" x="1224.46" y="138.31" width="30.29" height="4.66"/><rect class="cls-2" x="1224.46" y="152.3" width="30.29" height="4.66"/><rect class="cls-2" x="1224.46" y="166.28" width="30.29" height="4.66"/><rect class="cls-2" x="1224.46" y="194.23" width="30.29" height="4.66"/><rect class="cls-2" x="1226.78" y="208.22" width="27.96" height="4.66"/><path class="cls-2" d="M1147.54,185H1122a2.35,2.35,0,0,1-2.33-2.33V115a2.33,2.33,0,0,1,2.33-2.33h25.59a2.33,2.33,0,0,1,2.33,2.33v67.56a2.32,2.32,0,0,1-2.29,2.35h0Zm-23.3-4.67h21v-63h-21Z"/><rect class="cls-12" x="1147.58" y="115.03" width="25.63" height="67.56"/><path class="cls-13" d="M1173.21,185h-25.67a2.34,2.34,0,0,1-2.32-2.33V115a2.32,2.32,0,0,1,2.31-2.33h25.64a2.33,2.33,0,0,1,2.33,2.33v67.56a2.33,2.33,0,0,1-2.29,2.36Zm-23.31-4.67h21v-63h-21Z"/><rect class="cls-15" x="1173.21" y="115.03" width="25.63" height="67.56"/><path class="cls-13" d="M1198.84,185h-25.63a2.35,2.35,0,0,1-2.33-2.33V115a2.33,2.33,0,0,1,2.33-2.33h25.63a2.32,2.32,0,0,1,2.32,2.32h0v67.56a2.32,2.32,0,0,1-2.29,2.35h0Zm-23.31-4.67h21v-63h-21Z"/><rect class="cls-10" x="1198.84" y="115.03" width="25.63" height="67.56"/><path class="cls-13" d="M1224.48,185h-25.62a2.35,2.35,0,0,1-2.33-2.33V115a2.33,2.33,0,0,1,2.33-2.33h25.62a2.32,2.32,0,0,1,2.32,2.32h0v67.56a2.32,2.32,0,0,1-2.29,2.35h0Zm-23.29-4.67h21v-63h-21Z"/><rect class="cls-2" x="1128.94" y="122.02" width="11.65" height="4.66"/><rect class="cls-2" x="1128.94" y="131.33" width="11.65" height="4.66"/><rect class="cls-2" x="1128.94" y="140.65" width="11.65" height="4.66"/><rect class="cls-2" x="1128.94" y="149.97" width="11.65" height="4.66"/><rect class="cls-2" x="1128.94" y="159.28" width="11.65" height="4.66"/><rect class="cls-2" x="1128.94" y="168.61" width="11.65" height="4.66"/><rect class="cls-13" x="1154.57" y="122.02" width="11.65" height="4.66"/><rect class="cls-13" x="1154.57" y="131.33" width="11.65" height="4.66"/><rect class="cls-13" x="1154.57" y="140.65" width="11.65" height="4.66"/><rect class="cls-13" x="1154.57" y="149.97" width="11.65" height="4.66"/><rect class="cls-13" x="1154.57" y="159.28" width="11.65" height="4.66"/><rect class="cls-13" x="1154.57" y="168.61" width="11.65" height="4.66"/><rect class="cls-13" x="1180.2" y="122.02" width="11.65" height="4.66"/><rect class="cls-13" x="1180.2" y="131.33" width="11.65" height="4.66"/><rect class="cls-13" x="1180.2" y="140.65" width="11.65" height="4.66"/><rect class="cls-13" x="1180.2" y="149.97" width="11.65" height="4.66"/><rect class="cls-13" x="1180.2" y="159.28" width="11.65" height="4.66"/><rect class="cls-13" x="1180.2" y="168.61" width="11.65" height="4.66"/><rect class="cls-13" x="1205.82" y="122.02" width="11.65" height="4.66"/><rect class="cls-13" x="1205.82" y="131.33" width="11.65" height="4.66"/><rect class="cls-13" x="1205.82" y="140.65" width="11.65" height="4.66"/><rect class="cls-13" x="1205.82" y="149.97" width="11.65" height="4.66"/><rect class="cls-13" x="1205.82" y="159.28" width="11.65" height="4.66"/><rect class="cls-13" x="1205.82" y="168.61" width="11.65" height="4.66"/><path class="cls-12" d="M1122,182.59h25.59v67.56H1126a4,4,0,0,1-4-4Z"/><path class="cls-13" d="M1147.54,252.48h-16.31a11.67,11.67,0,0,1-11.65-11.65V182.59a2.33,2.33,0,0,1,2.33-2.33h25.63a2.33,2.33,0,0,1,2.33,2.33v67.56A2.35,2.35,0,0,1,1147.54,252.48ZM1124.27,185v55.91a7,7,0,0,0,7,7h14V185Z"/><path class="cls-13" d="M1184.86,252.48h-37.32a2.34,2.34,0,0,1-2.32-2.33V182.59a2.32,2.32,0,0,1,2.31-2.33h25.64a2.33,2.33,0,0,1,2.33,2.33v46.59h-4.66V185h-21v62.89h35Z"/><path class="cls-13" d="M1175.54,222.18h-4.66v-39.6a2.35,2.35,0,0,1,2.33-2.33h25.63V185h-23.3Z"/><path class="cls-2" d="M1226.78,205.89h-4.66v-21h-21v16.34h-4.65V182.59a2.33,2.33,0,0,1,2.33-2.33h25.67a2.33,2.33,0,0,1,2.33,2.33Z"/><rect class="cls-13" x="1128.94" y="189.58" width="11.65" height="4.66"/><rect class="cls-13" x="1128.94" y="198.9" width="11.65" height="4.66"/><rect class="cls-13" x="1128.94" y="208.22" width="11.65" height="4.66"/><rect class="cls-13" x="1128.94" y="217.53" width="11.65" height="4.66"/><rect class="cls-13" x="1128.94" y="226.84" width="11.65" height="4.66"/><rect class="cls-13" x="1128.94" y="236.17" width="11.65" height="4.66"/><rect class="cls-13" x="1154.57" y="189.58" width="11.65" height="4.66"/><rect class="cls-13" x="1154.57" y="198.9" width="11.65" height="4.66"/><rect class="cls-13" x="1154.57" y="208.22" width="11.65" height="4.66"/><rect class="cls-13" x="1154.57" y="217.53" width="11.65" height="4.66"/><rect class="cls-13" x="1154.57" y="226.84" width="11.65" height="4.66"/><rect class="cls-13" x="1154.57" y="236.17" width="11.65" height="4.66"/><rect class="cls-13" x="1180.2" y="189.58" width="11.65" height="4.66"/><rect class="cls-13" x="1180.2" y="198.9" width="11.65" height="4.66"/><rect class="cls-2" x="1205.82" y="189.58" width="11.65" height="4.66"/><rect class="cls-13" x="1180.2" y="208.22" width="9.32" height="4.66"/><rect class="cls-2" x="1252.41" y="182.59" width="4.66" height="51.25"/><path class="cls-10" d="M1239.61,252.48h-54.75a16.32,16.32,0,0,1-.82-32.62h.82a23.29,23.29,0,0,1,44.63-9.32,9.39,9.39,0,0,1,8.67,7,17.47,17.47,0,0,1,3,34.81H1241q-.72.06-1.44.06Zm-54.75-28a11.65,11.65,0,0,0,0,23.29h54.75a12.82,12.82,0,0,0,0-25.63,13.76,13.76,0,0,0-3,.37,2.2,2.2,0,0,1-2-.48,2.3,2.3,0,0,1-.83-1.93v-.35a4.64,4.64,0,0,0-4.66-4.59,6.87,6.87,0,0,0-.78.08,2.31,2.31,0,0,1-2.59-1.53,18.63,18.63,0,0,0-36.23,6.11,17.46,17.46,0,0,0,.15,2.28,2.32,2.32,0,0,1-2,2.61,2.06,2.06,0,0,1-.7,0,13.44,13.44,0,0,0-2.1-.19Z"/><rect class="cls-10" x="1217.47" y="238.49" width="4.66" height="4.66"/><rect class="cls-10" x="1226.78" y="238.49" width="4.66" height="4.66"/><rect class="cls-10" x="1236.11" y="238.49" width="4.66" height="4.66"/><path class="cls-10" d="M1198.84,236.17h-4.67a18.68,18.68,0,0,1,18.63-18.64v4.65A14,14,0,0,0,1198.84,236.17Z"/><rect class="cls-21" x="1015.61" y="558.79" width="69.76" height="36.25"/><path class="cls-13" d="M1136,590.71a9.07,9.07,0,0,1-6.34-2.63L1117.54,576l3.32-3.31,12.11,12.1a4.29,4.29,0,0,0,6.06-6.06l-18.49-18.42h-24.79v-4.68h25.79a2.36,2.36,0,0,1,1.66.69l19.14,19.13a9,9,0,0,1-6.34,15.31Z"/><path class="cls-13" d="M1133.07,606.37a7.63,7.63,0,0,1-3.44-.81l-25-12.52h-8.81v-4.71h9.37a2.29,2.29,0,0,1,1,.23l25.54,12.78a3,3,0,0,0,2.82-.1l51.09-29.79a3,3,0,0,0-1.56-5.54h-.45L1136,574.29l-.8-4.62,47.64-8.28a7.65,7.65,0,0,1,5.17,14.15l-51.09,29.75A7.55,7.55,0,0,1,1133.07,606.37Z"/><path class="cls-13" d="M1095.78,597.73h-9.37a2.33,2.33,0,0,1-2.33-2.33h0V558a2.34,2.34,0,0,1,2.33-2.35h9.37a2.34,2.34,0,0,1,2.34,2.34h0v37.46A2.32,2.32,0,0,1,1095.78,597.73Zm-7-4.68h4.69V560.26h-4.69Z"/><path class="cls-13" d="M1086.41,597.73h-72.33V593h70V560.26h-70v-4.68h72.33a2.33,2.33,0,0,1,2.34,2.32v37.49a2.33,2.33,0,0,1-2.31,2.34h0Z"/><circle class="cls-15" cx="1100.47" cy="499.36" r="30.44"/><path class="cls-13" d="M1100.48,532.16a32.79,32.79,0,1,1,32.78-32.83,32.79,32.79,0,0,1-32.78,32.83Zm0-60.89a28.11,28.11,0,1,0,28.1,28.12h0a28.15,28.15,0,0,0-28.1-28.12Z"/><circle class="cls-10" cx="1170.73" cy="513.42" r="30.44"/><path class="cls-13" d="M1170.73,546.21a32.79,32.79,0,1,1,32.75-32.84h0A32.84,32.84,0,0,1,1170.73,546.21Zm0-60.9a28.11,28.11,0,1,0,28.1,28.12h0a28.14,28.14,0,0,0-28.1-28.09Z"/><path class="cls-2" d="M1088.75,501.72a7,7,0,1,1,7-7h0A7,7,0,0,1,1088.75,501.72Zm0-9.37a2.34,2.34,0,1,0,2.34,2.34h0a2.32,2.32,0,0,0-2.28-2.36h0Z"/><path class="cls-2" d="M1112.17,501.72a7,7,0,1,1,7-7h0A7,7,0,0,1,1112.17,501.72Zm0-9.37a2.34,2.34,0,1,0,2.34,2.34h0a2.32,2.32,0,0,0-2.28-2.36h0Z"/><path class="cls-2" d="M1159,515.77a7,7,0,1,1,7-7A7,7,0,0,1,1159,515.77Zm0-9.37a2.34,2.34,0,1,0,2.34,2.34h0a2.33,2.33,0,0,0-2.32-2.34Z"/><path class="cls-2" d="M1182.48,515.77a7,7,0,1,1,7-7A7,7,0,0,1,1182.48,515.77Zm0-9.37a2.34,2.34,0,1,0,2.34,2.34h0a2.34,2.34,0,0,0-2.34-2.34Z"/><path class="cls-2" d="M1112.17,518.1h-4.69a7,7,0,1,0-14,0h-4.69a11.71,11.71,0,1,1,23.42,0h0Z"/><path class="cls-2" d="M1170.73,534.49A11.71,11.71,0,0,1,1159,522.8v0h4.68a7,7,0,0,0,14,0h4.78a11.73,11.73,0,0,1-11.75,11.71h0Z"/></svg>